<?xml version="1.0" encoding="UTF-8" standalone="no"?>
<!-- Created with Inkscape (http://www.inkscape.org/) -->
<svg xmlns:dc="http://purl.org/dc/elements/1.1/" xmlns:cc="http://creativecommons.org/ns#" xmlns:rdf="http://www.w3.org/1999/02/22-rdf-syntax-ns#" xmlns:svg="http://www.w3.org/2000/svg" xmlns="http://www.w3.org/2000/svg" xmlns:sodipodi="http://sodipodi.sourceforge.net/DTD/sodipodi-0.dtd" xmlns:inkscape="http://www.inkscape.org/namespaces/inkscape" version="1.0" width="613.9729" height="786.22021" viewBox="0 0 613.9729 786.22021" id="svg2" xml:space="preserve" sodipodi:version="0.32" inkscape:version="0.48.2 r9819" sodipodi:docname="LSA_basemap.svg" inkscape:output_extension="org.inkscape.output.svg.inkscape">
<metadata id="metadata101">
	<rdf:RDF>
		<cc:Work rdf:about="">
			<dc:format>image/svg+xml</dc:format>
			<dc:type rdf:resource="http://purl.org/dc/dcmitype/StillImage" />
			<dc:title />
		</cc:Work>
	</rdf:RDF>
</metadata>
<sodipodi:namedview inkscape:window-height="949" inkscape:window-width="1280" inkscape:pageshadow="2" inkscape:pageopacity="0.0" guidetolerance="10.0" gridtolerance="10.0" objecttolerance="10.0" borderopacity="1.0" bordercolor="#666666" pagecolor="#ffffff" id="base" inkscape:zoom="0.6538456" inkscape:cx="197.62445" inkscape:cy="451.30349" inkscape:window-x="-4" inkscape:window-y="24" inkscape:current-layer="svg2" showgrid="false" inkscape:window-maximized="1" />
<g id="Kreise">
	<g id="lsa-msh">
		<polygon points="89.22925,532.29932 95.37378,530.76318 101.13354,534.22021 107.28198,532.68311 111.11743,533.83643 116.11401,545.74072 125.71362,541.51514 128.01636,543.04736 134.54321,553.8042 134.54321,555.34033 138.38354,554.95459 142.22339,552.65283 143.76001,544.20459 153.74243,546.89307 163.34399,538.82178 161.42456,538.05615 163.34399,534.60498 163.34399,528.07666 172.17603,520.01221 176.39917,520.01123 179.8562,516.93896 182.15894,516.55518 182.53979,512.71631 187.53394,508.10889 189.07104,507.72021 192.9104,507.34033 196.7522,504.64795 195.21558,499.2749 197.90259,493.12744 207.88745,499.2749 210.19019,495.43701 214.41479,496.97119 221.32642,499.27686 224.01636,501.19189 224.78394,501.9585 225.16821,507.7251 231.698,509.25537 242.448,503.11182 245.13354,502.73096 246.67261,506.5708 246.67261,516.94092 257.80542,521.16455 260.11206,521.54736 266.25464,521.92822 272.78394,529.229 280.08081,527.69287 280.08081,532.29932 283.15259,536.5249 275.8562,538.82666 274.70337,543.43506 270.86206,545.74072 267.02563,551.8833 265.10376,551.49854 265.87183,554.95654 270.86206,561.48291 273.16821,561.48291 275.08862,566.85596 272.39917,572.23486 270.09644,573.00439 270.4812,577.61084 278.54321,582.60498 279.31079,586.05615 284.68823,588.74854 287.37573,591.8208 286.60962,599.50049 278.54321,599.11475 278.92798,599.8833 279.69604,603.34033 273.55298,605.64502 267.78979,606.41064 263.95337,602.95459 264.33423,599.49463 256.65503,595.65576 253.58423,592.58838 249.35962,594.89307 245.90259,599.49854 238.99097,598.72803 232.84644,602.18408 228.62378,606.41064 229.3894,609.8667 224.39917,610.63525 223.63159,611.40283 215.95337,624.45947 210.57495,627.91455 207.11743,629.44775 204.04517,637.12744 207.11743,639.04736 200.20581,637.12939 200.20581,635.59521 198.28784,631.75537 197.90259,629.06689 198.28784,622.53857 189.84058,620.62061 187.53394,622.54053 181.3894,612.94385 170.25659,616.78076 165.26245,616.77588 163.72925,617.93604 164.11401,615.24463 158.35181,612.55518 153.35962,615.24463 147.21558,614.85596 144.14282,616.39209 134.54321,612.93896 130.31714,610.63135 120.71704,606.7915 107.28198,611.78369 101.13354,607.94873 101.13354,606.40576 98.06519,606.02393 98.44604,602.18408 99.60034,597.9585 97.29761,595.65576 99.21118,587.59619 94.22144,581.83447 91.14917,580.68311 92.30298,578.76416 89.61597,573.771 90.38354,568.01123 93.07104,567.62842 88.46118,564.17139 81.16821,560.71533 77.70776,551.1167 86.92798,537.29248 85.3894,537.29248 85.3894,537.29248 " style="fill:#e6d7e9" id="polygon10" />
		<polygon points="89.22925,532.29932 95.37378,530.76318 101.13354,534.22021 107.28198,532.68311 111.11743,533.83643 116.11401,545.74072 125.71362,541.51514 128.01636,543.04736 134.54321,553.8042 134.54321,555.34033 138.38354,554.95459 142.22339,552.65283 143.76001,544.20459 153.74243,546.89307 163.34399,538.82178 161.42456,538.05615 163.34399,534.60498 163.34399,528.07666 172.17603,520.01221 176.39917,520.01123 179.8562,516.93896 182.15894,516.55518 182.53979,512.71631 187.53394,508.10889 189.07104,507.72021 192.9104,507.34033 196.7522,504.64795 195.21558,499.2749 197.90259,493.12744 207.88745,499.2749 210.19019,495.43701 214.41479,496.97119 221.32642,499.27686 224.01636,501.19189 224.78394,501.9585 225.16821,507.7251 231.698,509.25537 242.448,503.11182 245.13354,502.73096 246.67261,506.5708 246.67261,516.94092 257.80542,521.16455 260.11206,521.54736 266.25464,521.92822 272.78394,529.229 280.08081,527.69287 280.08081,532.29932 283.15259,536.5249 275.8562,538.82666 274.70337,543.43506 270.86206,545.74072 267.02563,551.8833 265.10376,551.49854 265.87183,554.95654 270.86206,561.48291 273.16821,561.48291 275.08862,566.85596 272.39917,572.23486 270.09644,573.00439 270.4812,577.61084 278.54321,582.60498 279.31079,586.05615 284.68823,588.74854 287.37573,591.8208 286.60962,599.50049 278.54321,599.11475 278.92798,599.8833 279.69604,603.34033 273.55298,605.64502 267.78979,606.41064 263.95337,602.95459 264.33423,599.49463 256.65503,595.65576 253.58423,592.58838 249.35962,594.89307 245.90259,599.49854 238.99097,598.72803 232.84644,602.18408 228.62378,606.41064 229.3894,609.8667 224.39917,610.63525 223.63159,611.40283 215.95337,624.45947 210.57495,627.91455 207.11743,629.44775 204.04517,637.12744 207.11743,639.04736 200.20581,637.12939 200.20581,635.59521 198.28784,631.75537 197.90259,629.06689 198.28784,622.53857 189.84058,620.62061 187.53394,622.54053 181.3894,612.94385 170.25659,616.78076 165.26245,616.77588 163.72925,617.93604 164.11401,615.24463 158.35181,612.55518 153.35962,615.24463 147.21558,614.85596 144.14282,616.39209 134.54321,612.93896 130.31714,610.63135 120.71704,606.7915 107.28198,611.78369 101.13354,607.94873 101.13354,606.40576 98.06519,606.02393 98.44604,602.18408 99.60034,597.9585 97.29761,595.65576 99.21118,587.59619 94.22144,581.83447 91.14917,580.68311 92.30298,578.76416 89.61597,573.771 90.38354,568.01123 93.07104,567.62842 88.46118,564.17139 81.16821,560.71533 77.70776,551.1167 86.92798,537.29248 85.3894,537.29248 85.3894,537.29248 " style="fill:none;stroke:#000000;stroke-width:0.42519999;stroke-miterlimit:3.8636899" id="polygon12" />
	</g>
	<g id="lsa-blk">
		<polygon points="214.79956,656.32764 212.88159,660.94092 212.49683,663.62842 200.97534,677.44775 198.28784,674.37549 193.29761,680.52002 194.83081,683.98096 204.43237,688.20752 208.65698,686.67139 211.72681,688.20459 213.64478,693.58252 217.48462,693.96436 217.86401,698.57275 218.2522,702.41064 221.71118,702.7915 219.02563,703.94775 218.6394,710.47314 213.64478,711.24072 216.71704,717.3833 216.33423,718.5415 217.10181,721.61182 221.71362,726.604 231.6936,726.604 236.30298,727.37158 237.07104,724.29932 243.98315,720.84229 248.97534,722.38135 253.58423,725.83643 252.8186,728.90869 258.19019,723.53174 260.11401,725.06689 261.64478,723.91455 264.71704,723.14893 270.86206,727.37354 272.01636,731.98291 273.16821,735.05518 273.16821,738.88721 280.46362,739.27002 281.99878,741.19189 285.45581,743.10986 285.45581,746.18408 287.37378,748.48877 288.52759,748.49268 290.83081,744.26807 300.81519,746.18408 308.49683,744.26611 314.64136,742.729 323.08862,748.87744 323.08862,752.71533 326.92798,753.09814 330.38354,751.18213 331.91821,752.33447 338.44604,756.93994 338.83081,757.3208 338.448,766.5415 345.74243,766.15674 348.81519,774.604 362.64136,771.91064 366.09644,770.76221 375.31323,774.98682 383.37573,776.90283 384.91235,772.30127 387.60034,770.38135 389.90259,773.83643 395.66235,784.58447 397.96704,783.04932 401.42456,775.37158 401.04175,770.76416 406.79956,764.23486 409.87378,758.854 412.17603,755.40479 412.55884,754.63525 411.40698,746.95557 402.95923,745.80518 402.95923,744.64697 405.26196,742.34619 404.49438,736.20361 410.25659,730.05322 410.25659,727.37158 408.71899,723.91455 402.95923,724.68213 395.66235,719.69189 399.50464,712.78174 389.13354,708.55518 389.90259,700.49268 392.59058,692.81299 383.37378,693.96436 384.52759,690.5083 389.13354,682.06104 388.36743,672.08154 387.60034,672.45557 386.06079,665.54736 382.6062,665.1626 381.45581,658.63623 374.54321,659.021 368.01636,661.70166 368.01636,664.39209 363.40698,664.77588 359.5686,665.92822 359.18384,669.38818 353.80542,667.85303 354.19019,665.16455 353.80542,663.24463 355.72876,654.79639 351.50464,655.56494 341.51782,659.40479 338.83081,657.8667 336.91284,660.55713 334.6062,659.78369 334.22534,662.09229 324.24097,662.47705 324.62573,671.30713 323.8562,675.14893 316.9436,675.9165 311.95337,672.84424 308.88159,675.14893 306.19019,675.14893 303.88696,671.30908 300.42603,674.37549 300.04517,671.68799 295.05542,670.91943 291.60034,670.91943 291.60034,664.01123 290.06079,663.24463 285.07104,658.24756 284.68823,658.24756 273.55298,662.85596 265.87183,661.31982 265.48706,660.17139 254.35181,650.5708 255.50464,647.49463 251.28198,645.19189 250.89722,645.19678 246.67261,652.10889 240.52759,653.64014 238.22534,661.31982 235.91821,662.4751 230.15894,658.24756 228.23901,662.47705 217.88745,655.56006 217.88745,655.56006 " style="fill:#d5e6f4" id="polygon16" />
		<polygon points="214.79956,656.32764 212.88159,660.94092 212.49683,663.62842 200.97534,677.44775 198.28784,674.37549 193.29761,680.52002 194.83081,683.98096 204.43237,688.20752 208.65698,686.67139 211.72681,688.20459 213.64478,693.58252 217.48462,693.96436 217.86401,698.57275 218.2522,702.41064 221.71118,702.7915 219.02563,703.94775 218.6394,710.47314 213.64478,711.24072 216.71704,717.3833 216.33423,718.5415 217.10181,721.61182 221.71362,726.604 231.6936,726.604 236.30298,727.37158 237.07104,724.29932 243.98315,720.84229 248.97534,722.38135 253.58423,725.83643 252.8186,728.90869 258.19019,723.53174 260.11401,725.06689 261.64478,723.91455 264.71704,723.14893 270.86206,727.37354 272.01636,731.98291 273.16821,735.05518 273.16821,738.88721 280.46362,739.27002 281.99878,741.19189 285.45581,743.10986 285.45581,746.18408 287.37378,748.48877 288.52759,748.49268 290.83081,744.26807 300.81519,746.18408 308.49683,744.26611 314.64136,742.729 323.08862,748.87744 323.08862,752.71533 326.92798,753.09814 330.38354,751.18213 331.91821,752.33447 338.44604,756.93994 338.83081,757.3208 338.448,766.5415 345.74243,766.15674 348.81519,774.604 362.64136,771.91064 366.09644,770.76221 375.31323,774.98682 383.37573,776.90283 384.91235,772.30127 387.60034,770.38135 389.90259,773.83643 395.66235,784.58447 397.96704,783.04932 401.42456,775.37158 401.04175,770.76416 406.79956,764.23486 409.87378,758.854 412.17603,755.40479 412.55884,754.63525 411.40698,746.95557 402.95923,745.80518 402.95923,744.64697 405.26196,742.34619 404.49438,736.20361 410.25659,730.05322 410.25659,727.37158 408.71899,723.91455 402.95923,724.68213 395.66235,719.69189 399.50464,712.78174 389.13354,708.55518 389.90259,700.49268 392.59058,692.81299 383.37378,693.96436 384.52759,690.5083 389.13354,682.06104 388.36743,672.08154 387.60034,672.45557 386.06079,665.54736 382.6062,665.1626 381.45581,658.63623 374.54321,659.021 368.01636,661.70166 368.01636,664.39209 363.40698,664.77588 359.5686,665.92822 359.18384,669.38818 353.80542,667.85303 354.19019,665.16455 353.80542,663.24463 355.72876,654.79639 351.50464,655.56494 341.51782,659.40479 338.83081,657.8667 336.91284,660.55713 334.6062,659.78369 334.22534,662.09229 324.24097,662.47705 324.62573,671.30713 323.8562,675.14893 316.9436,675.9165 311.95337,672.84424 308.88159,675.14893 306.19019,675.14893 303.88696,671.30908 300.42603,674.37549 300.04517,671.68799 295.05542,670.91943 291.60034,670.91943 291.60034,664.01123 290.06079,663.24463 285.07104,658.24756 284.68823,658.24756 273.55298,662.85596 265.87183,661.31982 265.48706,660.17139 254.35181,650.5708 255.50464,647.49463 251.28198,645.19189 250.89722,645.19678 246.67261,652.10889 240.52759,653.64014 238.22534,661.31982 235.91821,662.4751 230.15894,658.24756 228.23901,662.47705 217.88745,655.56006 217.88745,655.56006 " style="fill:none;stroke:#000000;stroke-width:0.42519999;stroke-miterlimit:3.8636899" id="polygon18" />
	</g>
	<g id="lsa-sk">
		<path d="m 381.47144,658.63623 -0.78564,-6.52734 -2.30225,0.38379 -0.76758,-3.07227 -2.30273,-7.30078 6.91211,-3.07227 4.2207,-0.76465 -0.38525,-1.15527 0.002,-3.06641 -0.76807,-7.68555 -3.8374,-5.37109 -1.15479,-12.67676 4.22461,-4.21875 -1.92139,-3.8418 -4.60742,-0.38379 -3.83984,-9.98438 1.1543,-1.53418 11.51758,-8.44824 0.76953,-6.52832 -3.45752,-1.15625 0.76758,-9.59668 -6.91162,-6.52637 0,-3.83984 -1.15234,-5.76074 -0.38525,-1.91992 -14.20459,0.38281 -0.77197,-0.3877 -3.83984,0 -11.90234,-3.06836 1.53955,-2.30371 1.15039,-2.30273 -4.22656,-9.21582 3.45654,-2.30957 -0.76514,-3.45508 -7.68164,-0.37988 -0.38477,-9.8e-4 -1.5332,-0.38281 -1.15479,0 -4.22461,0.38379 -5.75928,1.15039 -3.45557,-1.15039 -9.60156,-3.83984 -6.91162,-6.52832 -2.30322,8.06445 -4.22412,1.53613 -3.07227,-3.07227 -5.375,6.14453 -3.45557,-1.1543 -2.3042,-0.38379 -4.60742,-1.53418 -0.76758,6.91211 0,4.60645 3.07178,4.22559 -7.29639,2.30176 -1.15283,4.6084 -3.84131,2.30566 -3.83643,6.14258 -1.92188,-0.38477 0.76807,3.45801 4.99023,6.52637 2.30615,0 1.92041,5.37305 -2.68945,5.37891 -2.30273,0.76953 0.38477,4.60645 8.06201,4.99414 0.76758,3.45117 5.37744,2.69238 2.6875,3.07227 -0.76611,7.67969 -8.06641,-0.38574 0.38477,0.76855 0.76807,3.45703 -6.14307,2.30469 -5.76318,0.76562 -3.83643,-3.45605 0.38086,-3.45996 -7.6792,-3.83887 -3.0708,-3.06738 -4.22461,2.30469 -3.45703,4.60547 -6.91162,-0.77051 -6.14453,3.45605 -4.22266,4.22656 0.76562,3.45605 -4.99023,0.76855 -0.76758,0.76758 -7.67822,13.05664 -5.37842,3.45508 -3.45752,1.5332 -3.07227,7.67969 3.07227,1.91992 -2.3042,3.07227 13.05859,13.44043 10.36719,6.91699 1.91992,-4.22949 5.75928,4.22754 2.30713,-1.15527 2.30225,-7.67969 6.14502,-1.53125 4.22461,-6.91211 0.38477,-0.005 4.22266,2.30273 -1.15283,3.07617 11.13525,9.60059 0.38477,1.14844 7.68115,1.53613 11.13525,-4.6084 0.38281,0 4.98975,4.99707 1.53955,0.7666 0,6.9082 3.45508,0 4.98975,0.76855 0.38086,2.6875 3.46094,-3.06641 2.30322,3.83984 2.69141,0 3.07178,-2.30469 4.99023,3.07227 6.9126,-0.76758 0.76953,-3.8418 -0.38477,-8.83008 9.98438,-0.38477 0.38086,-2.30859 2.30664,0.77344 1.91797,-2.69043 2.68701,1.53809 9.98682,-3.83984 4.22412,-0.76855 -1.92334,8.44824 0.38477,1.91992 -0.38477,2.68848 5.37842,1.53516 0.38477,-3.45996 3.83838,-1.15234 4.60938,-0.38379 0,-2.69043 6.52686,-2.68066 6.92818,-0.38476 z m -74.11963,-79.1084 3.83203,0 -5.75928,-7.67969 4.60742,-2.30078 0.76758,-5.76562 3.83984,-0.37695 4.60742,3.83496 1.92139,-1.91992 4.60742,-0.7666 1.5376,1.92188 2.6875,-4.99414 6.52686,-0.76465 6.14502,-9.8e-4 2.30273,5.37695 2.30664,10.75195 8.06201,1.15234 2.68799,-1.54102 1.92139,1.91992 -0.76953,2.30762 -2.68701,-0.3877 -4.60986,4.22461 0.76807,5.7627 -5.37305,5.76172 -2.30664,9.60059 -1.91992,6.13867 -9.21484,-1.14844 -4.22461,0 -0.76953,-9.21777 -5.375,-2.30078 -3.83984,-1.91992 3.07178,-4.22363 -3.07178,-3.45703 -6.14453,0.37988 -5.76025,-6.91211 -0.37502,-3.45606 z" style="fill:#e8f1d2;fill-rule:evenodd" id="path22" inkscape:connector-curvature="0" />
		<path d="m 381.47144,658.63623 -0.78564,-6.52734 -2.30225,0.38379 -0.76758,-3.07227 -2.30273,-7.30078 6.91211,-3.07227 4.2207,-0.76465 -0.38525,-1.15527 0.002,-3.06641 -0.76807,-7.68555 -3.8374,-5.37109 -1.15479,-12.67676 4.22461,-4.21875 -1.92139,-3.8418 -4.60742,-0.38379 -3.83984,-9.98438 1.1543,-1.53418 11.51758,-8.44824 0.76953,-6.52832 -3.45752,-1.15625 0.76758,-9.59668 -6.91162,-6.52637 0,-3.83984 -1.15234,-5.76074 -0.38525,-1.91992 -14.20459,0.38281 -0.77197,-0.3877 -3.83984,0 -11.90234,-3.06836 1.53955,-2.30371 1.15039,-2.30273 -4.22656,-9.21582 3.45654,-2.30957 -0.76514,-3.45508 -7.68164,-0.37988 -0.38477,-9.8e-4 -1.5332,-0.38281 -1.15479,0 -4.22461,0.38379 -5.75928,1.15039 -3.45557,-1.15039 -9.60156,-3.83984 -6.91162,-6.52832 -2.30322,8.06445 -4.22412,1.53613 -3.07227,-3.07227 -5.375,6.14453 -3.45557,-1.1543 -2.3042,-0.38379 -4.60742,-1.53418 -0.76758,6.91211 0,4.60645 3.07178,4.22559 -7.29639,2.30176 -1.15283,4.6084 -3.84131,2.30566 -3.83643,6.14258 -1.92188,-0.38477 0.76807,3.45801 4.99023,6.52637 2.30615,0 1.92041,5.37305 -2.68945,5.37891 -2.30273,0.76953 0.38477,4.60645 8.06201,4.99414 0.76758,3.45117 5.37744,2.69238 2.6875,3.07227 -0.76611,7.67969 -8.06641,-0.38574 0.38477,0.76855 0.76807,3.45703 -6.14307,2.30469 -5.76318,0.76562 -3.83643,-3.45605 0.38086,-3.45996 -7.6792,-3.83887 -3.0708,-3.06738 -4.22461,2.30469 -3.45703,4.60547 -6.91162,-0.77051 -6.14453,3.45605 -4.22266,4.22656 0.76562,3.45605 -4.99023,0.76855 -0.76758,0.76758 -7.67822,13.05664 -5.37842,3.45508 -3.45752,1.5332 -3.07227,7.67969 3.07227,1.91992 -2.3042,3.07227 13.05859,13.44043 10.36719,6.91699 1.91992,-4.22949 5.75928,4.22754 2.30713,-1.15527 2.30225,-7.67969 6.14502,-1.53125 4.22461,-6.91211 0.38477,-0.005 4.22266,2.30273 -1.15283,3.07617 11.13525,9.60059 0.38477,1.14844 7.68115,1.53613 11.13525,-4.6084 0.38281,0 4.98975,4.99707 1.53955,0.7666 0,6.9082 3.45508,0 4.98975,0.76855 0.38086,2.6875 3.46094,-3.06641 2.30322,3.83984 2.69141,0 3.07178,-2.30469 4.99023,3.07227 6.9126,-0.76758 0.76953,-3.8418 -0.38477,-8.83008 9.98438,-0.38477 0.38086,-2.30859 2.30664,0.77344 1.91797,-2.69043 2.68701,1.53809 9.98682,-3.83984 4.22412,-0.76855 -1.92334,8.44824 0.38477,1.91992 -0.38477,2.68848 5.37842,1.53516 0.38477,-3.45996 3.83838,-1.15234 4.60938,-0.38379 0,-2.69043 6.52686,-2.68066 6.92818,-0.38476 z m -74.11963,-79.1084 3.83203,0 -5.75928,-7.67969 4.60742,-2.30078 0.76758,-5.76562 3.83984,-0.37695 4.60742,3.83496 1.92139,-1.91992 4.60742,-0.7666 1.5376,1.92188 2.6875,-4.99414 6.52686,-0.76465 6.14502,-9.8e-4 2.30273,5.37695 2.30664,10.75195 8.06201,1.15234 2.68799,-1.54102 1.92139,1.91992 -0.76953,2.30762 -2.68701,-0.3877 -4.60986,4.22461 0.76807,5.7627 -5.37305,5.76172 -2.30664,9.60059 -1.91992,6.13867 -9.21484,-1.14844 -4.22461,0 -0.76953,-9.21777 -5.375,-2.30078 -3.83984,-1.91992 3.07178,-4.22363 -3.07178,-3.45703 -6.14453,0.37988 -5.76025,-6.91211 -0.37502,-3.45606 z" style="fill:none;stroke:#000000;stroke-width:0.42519999;stroke-miterlimit:3.8636899" id="path24" inkscape:connector-curvature="0" />
	</g>
	<g id="lsa-hz">
		<polygon points="100.36938,374.47705 106.51245,376.77783 109.20142,378.69873 117.26245,378.69873 118.03003,378.69873 118.79956,379.08252 118.79956,384.07666 124.17456,388.68311 125.71362,392.14111 138.76782,392.90381 138.38354,397.12744 139.15259,405.96436 144.14282,405.96436 144.52759,411.7251 140.68823,415.56494 143.76001,424.01123 149.51978,420.55518 161.80737,430.92139 167.18384,427.08447 182.55103,429.00635 182.54321,429.3833 179.8562,434.37549 183.31079,438.98389 180.62573,438.98389 181.39136,449.74072 175.24683,453.96436 166.03003,454.73096 164.11206,458.9585 163.72681,462.79541 160.27222,464.71533 158.73462,465.48291 162.95923,468.17139 164.11401,468.17139 167.5686,469.7085 171.40698,479.69287 174.09644,482.76416 177.86743,484.02588 179.11401,480.78369 183.84644,476.55127 191.573,477.29932 195.05884,480.5376 195.80542,485.51611 196.80298,489.25439 194.31323,491.99365 197.90259,493.12744 195.21558,499.2749 196.7522,504.64795 192.9104,507.34033 189.07104,507.72021 187.53394,508.10889 182.53979,512.71631 182.15894,516.55518 179.8562,516.93896 176.39917,520.01123 172.17603,520.01221 163.34399,528.07666 163.34399,534.60498 161.42456,538.05615 163.34399,538.82178 153.74243,546.89307 143.76001,544.20459 142.22339,552.65283 138.38354,554.95459 134.54321,555.34033 134.54321,553.8042 128.01636,543.04736 125.71362,541.51514 116.11401,545.74072 111.11743,533.83643 107.28198,532.68311 101.13354,534.22021 95.37378,530.76318 89.22925,532.29932 85.3894,537.29248 80.78003,539.21143 80.39917,539.59229 71.56885,531.52783 66.18994,532.30029 61.58252,528.84424 49.68018,525.3833 47.75635,528.07666 35.47119,528.84033 31.24658,523.84814 27.40894,516.1665 27.02588,512.71631 28.55713,507.72021 27.40894,503.49854 23.94971,500.03955 17.80908,485.45264 10.89697,482.38037 6.67236,476.23682 5.90088,459.34033 8.20557,456.64795 5.51807,453.57568 19.34033,440.14111 22.79541,435.14893 21.26221,427.84814 17.03955,425.16455 13.96729,424.01221 13.96729,417.48486 21.26416,412.10693 22.79932,410.5708 20.49658,408.65088 15.50439,407.11475 7.82275,401.73877 1.68018,393.29248 6.66846,390.60498 10.89307,391.75537 18.18994,389.83447 23.56714,384.46045 21.64697,378.69385 27.02197,377.54834 32.01221,376.01123 38.92822,375.62842 43.91455,376.01123 48.14111,376.39209 56.97534,376.39209 57.35596,376.39209 63.50073,376.01123 66.19214,375.24463 73.48682,372.17139 85.00854,371.78369 90.38354,371.78369 94.60962,372.17139 94.60962,372.17139 " style="fill:#fff1cf" id="polygon28" />
		<polygon points="100.36938,374.47705 106.51245,376.77783 109.20142,378.69873 117.26245,378.69873 118.03003,378.69873 118.79956,379.08252 118.79956,384.07666 124.17456,388.68311 125.71362,392.14111 138.76782,392.90381 138.38354,397.12744 139.15259,405.96436 144.14282,405.96436 144.52759,411.7251 140.68823,415.56494 143.76001,424.01123 149.51978,420.55518 161.80737,430.92139 167.18384,427.08447 182.55103,429.00635 182.54321,429.3833 179.8562,434.37549 183.31079,438.98389 180.62573,438.98389 181.39136,449.74072 175.24683,453.96436 166.03003,454.73096 164.11206,458.9585 163.72681,462.79541 160.27222,464.71533 158.73462,465.48291 162.95923,468.17139 164.11401,468.17139 167.5686,469.7085 171.40698,479.69287 174.09644,482.76416 177.86743,484.02588 179.11401,480.78369 183.84644,476.55127 191.573,477.29932 195.05884,480.5376 195.80542,485.51611 196.80298,489.25439 194.31323,491.99365 197.90259,493.12744 195.21558,499.2749 196.7522,504.64795 192.9104,507.34033 189.07104,507.72021 187.53394,508.10889 182.53979,512.71631 182.15894,516.55518 179.8562,516.93896 176.39917,520.01123 172.17603,520.01221 163.34399,528.07666 163.34399,534.60498 161.42456,538.05615 163.34399,538.82178 153.74243,546.89307 143.76001,544.20459 142.22339,552.65283 138.38354,554.95459 134.54321,555.34033 134.54321,553.8042 128.01636,543.04736 125.71362,541.51514 116.11401,545.74072 111.11743,533.83643 107.28198,532.68311 101.13354,534.22021 95.37378,530.76318 89.22925,532.29932 85.3894,537.29248 80.78003,539.21143 80.39917,539.59229 71.56885,531.52783 66.18994,532.30029 61.58252,528.84424 49.68018,525.3833 47.75635,528.07666 35.47119,528.84033 31.24658,523.84814 27.40894,516.1665 27.02588,512.71631 28.55713,507.72021 27.40894,503.49854 23.94971,500.03955 17.80908,485.45264 10.89697,482.38037 6.67236,476.23682 5.90088,459.34033 8.20557,456.64795 5.51807,453.57568 19.34033,440.14111 22.79541,435.14893 21.26221,427.84814 17.03955,425.16455 13.96729,424.01221 13.96729,417.48486 21.26416,412.10693 22.79932,410.5708 20.49658,408.65088 15.50439,407.11475 7.82275,401.73877 1.68018,393.29248 6.66846,390.60498 10.89307,391.75537 18.18994,389.83447 23.56714,384.46045 21.64697,378.69385 27.02197,377.54834 32.01221,376.01123 38.92822,375.62842 43.91455,376.01123 48.14111,376.39209 56.97534,376.39209 57.35596,376.39209 63.50073,376.01123 66.19214,375.24463 73.48682,372.17139 85.00854,371.78369 90.38354,371.78369 94.60962,372.17139 94.60962,372.17139 " style="fill:none;stroke:#000000;stroke-width:0.42519999;stroke-miterlimit:3.8636899" id="polygon30" />
	</g>
	<g id="lsa-wb">
		<polygon points="402.95337,396.93115 403.7522,402.26221 403.7522,407.33057 407.7522,408.93115 410.95337,407.86182 412.28394,413.4624 412.55298,421.99658 414.68384,426.26221 415.21899,430.53076 408.55298,431.06201 408.28394,436.13135 409.88354,440.6626 406.95337,442.53076 409.35181,444.93115 414.68384,452.93115 413.88354,457.4624 411.21899,461.19678 415.25073,464.32568 414.47681,468.55518 416.78394,470.4751 417.55103,483.52979 414.85376,486.22021 412.9436,491.98096 416.78394,491.59619 421.77417,495.82568 417.55103,497.36182 418.70337,504.26709 424.84644,500.04443 425.61597,499.65576 433.67798,500.03955 439.82495,496.5835 440.20581,496.20459 439.82495,496.5835 447.88696,496.96631 447.50464,504.26709 452.49683,503.8833 453.26196,508.87646 462.09644,510.7915 470.92798,508.87646 470.54321,520.39209 472.86206,524.62061 482.44604,523.84814 484.36743,524.61572 479.76001,529.9917 492.81519,521.54736 498.57495,510.02686 508.9436,511.94873 509.32642,511.94873 517.3894,515.021 525.07104,507.34033 526.6062,506.5708 530.44604,501.58057 534.2854,500.81396 538.1272,504.26709 538.89478,510.02881 547.72681,514.25244 553.48706,512.71143 556.9436,516.55029 563.8562,511.56299 562.70142,506.95459 566.15894,505.03467 572.68774,506.18896 576.14282,516.55127 581.90259,512.32275 607.63159,494.6665 612.62573,483.14893 605.32642,475.84814 606.86206,471.24463 603.40698,469.7085 604.9436,455.50049 605.32642,451.65576 600.33423,445.12744 595.72681,433.61279 602.25659,432.07666 601.49438,427.46729 597.2644,423.62842 586.51196,427.46729 585.74634,429.771 576.91235,429.00439 576.9104,417.8667 560.39917,418.24756 560.78394,411.34033 555.78979,410.18506 556.55737,405.57764 546.95776,404.42432 546.57495,407.49561 542.73462,408.64893 531.98315,406.34717 529.67798,394.82666 524.68774,396.36475 513.93384,396.36475 512.01636,390.98877 508.17603,388.29932 502.80103,387.52783 495.50415,382.54053 485.13354,379.08252 483.21558,386.38037 479.76001,386.76416 475.91821,387.91455 476.30298,390.98877 473.61206,391.37061 459.02563,390.60498 457.87183,384.84424 449.42456,382.15381 445.58276,379.08154 432.14282,378.31494 425.88354,379.60107 419.48462,377.73389 417.08423,384.40088 412.28394,389.73389 404.28394,390.00146 398.68384,391.33447 399.23462,394.79639 399.23462,394.79639 " style="fill:#e8f1d2" id="polygon34" />
		<polygon points="402.95337,396.93115 403.7522,402.26221 403.7522,407.33057 407.7522,408.93115 410.95337,407.86182 412.28394,413.4624 412.55298,421.99658 414.68384,426.26221 415.21899,430.53076 408.55298,431.06201 408.28394,436.13135 409.88354,440.6626 406.95337,442.53076 409.35181,444.93115 414.68384,452.93115 413.88354,457.4624 411.21899,461.19678 415.25073,464.32568 414.47681,468.55518 416.78394,470.4751 417.55103,483.52979 414.85376,486.22021 412.9436,491.98096 416.78394,491.59619 421.77417,495.82568 417.55103,497.36182 418.70337,504.26709 424.84644,500.04443 425.61597,499.65576 433.67798,500.03955 439.82495,496.5835 440.20581,496.20459 439.82495,496.5835 447.88696,496.96631 447.50464,504.26709 452.49683,503.8833 453.26196,508.87646 462.09644,510.7915 470.92798,508.87646 470.54321,520.39209 472.86206,524.62061 482.44604,523.84814 484.36743,524.61572 479.76001,529.9917 492.81519,521.54736 498.57495,510.02686 508.9436,511.94873 509.32642,511.94873 517.3894,515.021 525.07104,507.34033 526.6062,506.5708 530.44604,501.58057 534.2854,500.81396 538.1272,504.26709 538.89478,510.02881 547.72681,514.25244 553.48706,512.71143 556.9436,516.55029 563.8562,511.56299 562.70142,506.95459 566.15894,505.03467 572.68774,506.18896 576.14282,516.55127 581.90259,512.32275 607.63159,494.6665 612.62573,483.14893 605.32642,475.84814 606.86206,471.24463 603.40698,469.7085 604.9436,455.50049 605.32642,451.65576 600.33423,445.12744 595.72681,433.61279 602.25659,432.07666 601.49438,427.46729 597.2644,423.62842 586.51196,427.46729 585.74634,429.771 576.91235,429.00439 576.9104,417.8667 560.39917,418.24756 560.78394,411.34033 555.78979,410.18506 556.55737,405.57764 546.95776,404.42432 546.57495,407.49561 542.73462,408.64893 531.98315,406.34717 529.67798,394.82666 524.68774,396.36475 513.93384,396.36475 512.01636,390.98877 508.17603,388.29932 502.80103,387.52783 495.50415,382.54053 485.13354,379.08252 483.21558,386.38037 479.76001,386.76416 475.91821,387.91455 476.30298,390.98877 473.61206,391.37061 459.02563,390.60498 457.87183,384.84424 449.42456,382.15381 445.58276,379.08154 432.14282,378.31494 425.88354,379.60107 419.48462,377.73389 417.08423,384.40088 412.28394,389.73389 404.28394,390.00146 398.68384,391.33447 399.23462,394.79639 399.23462,394.79639 " style="fill:none;stroke:#000000;stroke-width:0.42519999;stroke-miterlimit:3.8636899" id="polygon36" />
	</g>
	<g id="lsa-abi">
		<polygon points="314.26782,389.78516 317.64282,389.78516 323.39282,387.78516 323.51782,385.28516 327.89282,381.91016 331.39282,380.78516 333.51782,378.28516 335.76782,378.28516 336.64282,379.41016 338.64282,372.66016 340.26782,372.66016 342.76782,367.16016 349.01782,369.66016 354.42798,362.11475 362.52417,361.01123 365.28735,363.58252 372.64478,362.29932 375.77563,359.90674 382.58276,358.98193 386.26196,352.36182 392.70776,350.88916 396.43237,347.98096 406.79956,354.89307 411.40698,362.5708 416.01636,368.71631 420.62573,369.09912 432.15845,378.31689 425.88354,379.60107 419.48462,377.73389 417.08423,384.40088 412.28394,389.73389 404.28394,390.00146 398.68384,391.33447 399.21899,394.80127 395.21899,399.06689 389.88354,401.73291 385.61743,403.33252 386.68384,411.60107 383.7522,413.73291 381.61743,416.6665 378.38501,414.41064 374.17456,413.25537 370.69995,415.17627 377.22876,424.39307 367.24683,424.01416 363.42261,426.31494 361.87183,435.91455 366.09644,435.91455 368.7854,437.83447 366.86401,453.19482 368.39917,457.42041 363.78979,460.10889 363.40698,463.18018 364.17456,469.7085 370.31714,472.01123 382.6062,475.46729 389.51782,478.15479 391.44019,469.32178 401.42017,461.64111 404.86743,465.86865 407.95337,482.76416 414.86206,486.22021 412.9436,491.98096 416.78394,491.59619 421.77417,495.82568 417.55103,497.36182 418.70337,504.26709 424.84644,500.04443 425.61597,499.65576 433.67798,500.03955 439.82495,496.5835 440.20581,496.20459 439.82495,496.5835 447.88696,496.96631 447.50464,504.26709 452.49683,503.8833 453.26196,508.87646 462.09644,510.7915 470.92798,508.87646 470.54321,520.39209 472.84644,524.62061 471.698,528.45557 460.9436,532.68311 460.17603,532.29932 450.57495,536.90381 442.1272,531.52783 437.13354,542.28271 429.45581,540.36475 424.07837,542.28174 417.16821,541.51611 417.93384,543.43506 407.95337,548.81104 405.26196,551.11475 394.51196,549.96436 392.59204,556.49268 384.9104,562.63623 377.99878,556.10889 377.99878,552.26904 376.84644,546.5083 376.46118,544.58838 362.25659,544.97119 361.48462,544.5835 357.64478,544.5835 345.74243,541.51514 347.28198,539.21143 348.43237,536.90869 344.20581,527.69287 347.66235,525.3833 346.89722,521.92822 339.21558,521.54834 338.83081,521.54736 337.29761,521.16455 336.14282,521.16455 331.91821,521.54834 326.15894,522.69873 322.70337,521.54834 313.10181,517.7085 306.19019,511.18018 299.66284,508.10889 301.58276,501.19189 301.58276,500.04443 303.11743,487.37061 305.80542,486.98389 306.57495,483.14893 309.64722,483.14893 311.18384,478.91943 314.25659,478.91943 311.18384,477.3833 305.80542,475.84814 301.19995,472.01123 302.73462,467.021 300.81519,465.48291 300.81519,464.71631 308.49683,460.49072 306.57495,455.11182 303.50464,451.65576 302.73462,450.5083 305.80542,443.98096 310.03198,442.06104 313.10376,440.52002 314.25659,440.14111 314.64136,437.44775 320.7854,433.61084 326.15894,438.22021 336.52759,433.9917 339.60034,436.29443 338.83081,431.30908 333.84058,426.69873 327.698,418.24756 327.31323,417.87158 324.62573,415.18018 314.64136,405.96436 307.72876,397.89893 308.11401,391.37061 308.89282,388.78516 308.89282,388.78516 " style="fill:#fff1cf" id="polygon40" />
		<polygon points="314.26782,389.78516 317.64282,389.78516 323.39282,387.78516 323.51782,385.28516 327.89282,381.91016 331.39282,380.78516 333.51782,378.28516 335.76782,378.28516 336.64282,379.41016 338.64282,372.66016 340.26782,372.66016 342.76782,367.16016 349.01782,369.66016 354.42798,362.11475 362.52417,361.01123 365.28735,363.58252 372.64478,362.29932 375.77563,359.90674 382.58276,358.98193 386.26196,352.36182 392.70776,350.88916 396.43237,347.98096 406.79956,354.89307 411.40698,362.5708 416.01636,368.71631 420.62573,369.09912 432.15845,378.31689 425.88354,379.60107 419.48462,377.73389 417.08423,384.40088 412.28394,389.73389 404.28394,390.00146 398.68384,391.33447 399.21899,394.80127 395.21899,399.06689 389.88354,401.73291 385.61743,403.33252 386.68384,411.60107 383.7522,413.73291 381.61743,416.6665 378.38501,414.41064 374.17456,413.25537 370.69995,415.17627 377.22876,424.39307 367.24683,424.01416 363.42261,426.31494 361.87183,435.91455 366.09644,435.91455 368.7854,437.83447 366.86401,453.19482 368.39917,457.42041 363.78979,460.10889 363.40698,463.18018 364.17456,469.7085 370.31714,472.01123 382.6062,475.46729 389.51782,478.15479 391.44019,469.32178 401.42017,461.64111 404.86743,465.86865 407.95337,482.76416 414.86206,486.22021 412.9436,491.98096 416.78394,491.59619 421.77417,495.82568 417.55103,497.36182 418.70337,504.26709 424.84644,500.04443 425.61597,499.65576 433.67798,500.03955 439.82495,496.5835 440.20581,496.20459 439.82495,496.5835 447.88696,496.96631 447.50464,504.26709 452.49683,503.8833 453.26196,508.87646 462.09644,510.7915 470.92798,508.87646 470.54321,520.39209 472.84644,524.62061 471.698,528.45557 460.9436,532.68311 460.17603,532.29932 450.57495,536.90381 442.1272,531.52783 437.13354,542.28271 429.45581,540.36475 424.07837,542.28174 417.16821,541.51611 417.93384,543.43506 407.95337,548.81104 405.26196,551.11475 394.51196,549.96436 392.59204,556.49268 384.9104,562.63623 377.99878,556.10889 377.99878,552.26904 376.84644,546.5083 376.46118,544.58838 362.25659,544.97119 361.48462,544.5835 357.64478,544.5835 345.74243,541.51514 347.28198,539.21143 348.43237,536.90869 344.20581,527.69287 347.66235,525.3833 346.89722,521.92822 339.21558,521.54834 338.83081,521.54736 337.29761,521.16455 336.14282,521.16455 331.91821,521.54834 326.15894,522.69873 322.70337,521.54834 313.10181,517.7085 306.19019,511.18018 299.66284,508.10889 301.58276,501.19189 301.58276,500.04443 303.11743,487.37061 305.80542,486.98389 306.57495,483.14893 309.64722,483.14893 311.18384,478.91943 314.25659,478.91943 311.18384,477.3833 305.80542,475.84814 301.19995,472.01123 302.73462,467.021 300.81519,465.48291 300.81519,464.71631 308.49683,460.49072 306.57495,455.11182 303.50464,451.65576 302.73462,450.5083 305.80542,443.98096 310.03198,442.06104 313.10376,440.52002 314.25659,440.14111 314.64136,437.44775 320.7854,433.61084 326.15894,438.22021 336.52759,433.9917 339.60034,436.29443 338.83081,431.30908 333.84058,426.69873 327.698,418.24756 327.31323,417.87158 324.62573,415.18018 314.64136,405.96436 307.72876,397.89893 308.11401,391.37061 308.89282,388.78516 308.89282,388.78516 " style="fill:none;stroke:#000000;stroke-width:0.42519999;stroke-miterlimit:3.8636899" id="polygon42" />
	</g>
	<g id="lsa-slk">
		<polygon points="280.46118,365.25537 295.05542,366.41064 298.1272,368.32764 299.66284,370.24756 297.35962,376.78076 301.96899,380.23486 307.72681,384.07666 308.88159,388.68311 308.11401,391.37061 307.72876,397.89893 314.64136,405.96436 324.62573,415.18018 327.31323,417.87158 327.698,418.24756 333.84058,426.69873 338.83081,431.30908 339.60034,436.29443 336.52759,433.9917 326.15894,438.22021 320.7854,433.61084 314.64136,437.44775 314.25659,440.14111 313.10376,440.52002 310.03198,442.06104 305.80542,443.98096 302.73462,450.5083 303.50464,451.65576 306.57495,455.11182 308.49683,460.49072 300.81519,464.71631 300.81519,465.48291 302.73462,467.021 301.19995,472.01123 305.80542,475.84814 311.18384,477.3833 314.25659,478.91943 311.18384,478.91943 309.64722,483.14893 306.57495,483.14893 305.80542,486.98389 303.11743,487.37061 301.58276,500.04443 301.58276,501.19189 299.66284,508.10889 306.19019,511.18018 303.88696,519.24463 299.66284,520.78076 296.59058,517.7085 291.21558,523.85303 287.76001,522.69873 285.45581,522.31494 280.84839,520.78076 280.08081,527.69287 272.78394,529.229 266.25464,521.92822 260.11206,521.54736 257.80542,521.16455 246.67261,516.94092 246.67261,506.5708 245.13354,502.73096 242.448,503.11182 231.698,509.25537 225.16821,507.7251 224.78394,501.9585 224.01636,501.19189 221.32642,499.27686 214.41479,496.97119 210.19019,495.43701 207.88745,499.2749 197.90259,493.12744 194.31323,491.99365 196.80298,489.25439 195.80542,485.51611 195.05884,480.5376 191.573,477.29932 183.84644,476.55127 179.11401,480.78369 177.86743,484.02588 174.09644,482.76416 171.40698,479.69287 167.5686,469.7085 164.11401,468.17139 162.95923,468.17139 158.73462,465.48291 160.27222,464.71533 163.72681,462.79541 164.11206,458.9585 166.03003,454.73096 175.24683,453.96436 181.39136,449.74072 180.62573,438.98389 183.31079,438.98389 179.8562,434.37549 182.54321,429.3833 182.54321,429.00439 188.30298,417.48291 191.76001,414.41064 186.76782,414.41064 182.92798,406.34814 190.99097,398.28271 192.14282,399.8208 195.98315,398.6665 197.51782,391.75537 205.96362,389.06689 206.35181,395.21436 209.04175,397.51514 213.64722,398.28174 223.63159,405.58057 225.16821,405.19189 242.83081,402.5083 242.83081,396.74854 241.68042,384.07666 248.97534,381.3833 255.11938,377.9292 263.18384,371.78369 277.00659,366.41064 276.23901,363.33936 278.55884,362.95459 278.55884,362.95459 " style="fill:#d5e6f4;fill-rule:evenodd" id="polygon46" />
		<polygon points="280.46118,365.25537 295.05542,366.41064 298.1272,368.32764 299.66284,370.24756 297.35962,376.78076 301.96899,380.23486 307.72681,384.07666 308.88159,388.68311 308.11401,391.37061 307.72876,397.89893 314.64136,405.96436 324.62573,415.18018 327.31323,417.87158 327.698,418.24756 333.84058,426.69873 338.83081,431.30908 339.60034,436.29443 336.52759,433.9917 326.15894,438.22021 320.7854,433.61084 314.64136,437.44775 314.25659,440.14111 313.10376,440.52002 310.03198,442.06104 305.80542,443.98096 302.73462,450.5083 303.50464,451.65576 306.57495,455.11182 308.49683,460.49072 300.81519,464.71631 300.81519,465.48291 302.73462,467.021 301.19995,472.01123 305.80542,475.84814 311.18384,477.3833 314.25659,478.91943 311.18384,478.91943 309.64722,483.14893 306.57495,483.14893 305.80542,486.98389 303.11743,487.37061 301.58276,500.04443 301.58276,501.19189 299.66284,508.10889 306.19019,511.18018 303.88696,519.24463 299.66284,520.78076 296.59058,517.7085 291.21558,523.85303 287.76001,522.69873 285.45581,522.31494 280.84839,520.78076 280.08081,527.69287 272.78394,529.229 266.25464,521.92822 260.11206,521.54736 257.80542,521.16455 246.67261,516.94092 246.67261,506.5708 245.13354,502.73096 242.448,503.11182 231.698,509.25537 225.16821,507.7251 224.78394,501.9585 224.01636,501.19189 221.32642,499.27686 214.41479,496.97119 210.19019,495.43701 207.88745,499.2749 197.90259,493.12744 194.31323,491.99365 196.80298,489.25439 195.80542,485.51611 195.05884,480.5376 191.573,477.29932 183.84644,476.55127 179.11401,480.78369 177.86743,484.02588 174.09644,482.76416 171.40698,479.69287 167.5686,469.7085 164.11401,468.17139 162.95923,468.17139 158.73462,465.48291 160.27222,464.71533 163.72681,462.79541 164.11206,458.9585 166.03003,454.73096 175.24683,453.96436 181.39136,449.74072 180.62573,438.98389 183.31079,438.98389 179.8562,434.37549 182.54321,429.3833 182.54321,429.00439 188.30298,417.48291 191.76001,414.41064 186.76782,414.41064 182.92798,406.34814 190.99097,398.28271 192.14282,399.8208 195.98315,398.6665 197.51782,391.75537 205.96362,389.06689 206.35181,395.21436 209.04175,397.51514 213.64722,398.28174 223.63159,405.58057 225.16821,405.19189 242.83081,402.5083 242.83081,396.74854 241.68042,384.07666 248.97534,381.3833 255.11938,377.9292 263.18384,371.78369 277.00659,366.41064 276.23901,363.33936 278.55884,362.95459 278.55884,362.95459 " style="fill:none;stroke:#000000;stroke-width:0.42519999;stroke-miterlimit:3.8636899" id="polygon48" />
	</g>
	<g id="lsa-jl">
		<polygon points="288.91284,264.64795 296.59204,265.8042 306.57495,257.74072 310.79956,250.05615 316.55884,248.90381 315.40698,241.22217 321.55298,238.92432 326.15894,230.48096 329.99878,216.65283 326.15894,210.5083 322.70337,198.98389 319.63159,195.14893 324.24097,187.46729 325.3894,173.64502 327.698,179.40479 326.54321,194.37549 340.36938,192.07666 345.74243,186.31494 352.27222,191.69092 352.27222,196.68311 366.09644,200.52002 368.01636,198.22119 371.08862,201.29248 379.53394,200.13916 381.84058,192.45557 387.60034,192.84033 390.67261,199.36572 389.13354,201.67627 404.11206,202.05615 399.88696,205.12744 403.72681,210.50439 402.19019,216.65283 398.73462,220.10889 395.66235,233.92822 398.35181,233.54834 399.11938,238.54053 396.81519,242.37549 400.65503,245.06689 395.27759,250.82861 401.42456,257.35693 393.74243,272.71631 393.74243,273.09912 387.98315,293.83447 390.67261,296.14111 394.1272,297.67627 398.35181,301.12939 398.73462,302.6665 388.36938,309.58057 390.28735,309.95947 388.36938,315.72021 382.22534,323.78369 391.82495,336.84424 396.43237,347.98096 392.70776,350.88916 386.26196,352.36182 382.58276,358.98193 375.77563,359.90674 372.64478,362.29932 365.28735,363.58252 362.52417,361.01123 354.42798,362.11475 349.01782,369.66016 342.76782,367.16016 340.26782,372.66016 338.64282,372.66016 336.64282,379.41016 335.76782,378.28516 333.51782,378.28516 331.39282,380.78516 327.89282,381.91016 323.51782,385.28516 323.39282,387.78516 317.64282,389.78516 314.26782,389.78516 308.88159,388.68311 307.72681,384.07666 301.96899,380.23486 297.35962,376.78076 299.66284,370.24756 298.1272,368.32764 295.05542,366.41064 280.46118,365.25537 278.55884,362.95459 279.31323,361.8042 276.24097,356.42725 275.08862,355.27686 275.08862,354.5083 269.71362,352.96631 267.02563,347.59229 268.9436,339.53564 264.71704,334.54541 265.87183,327.24463 265.87183,326.85596 260.49683,320.71143 264.33423,315.72021 265.10376,315.34033 266.25659,313.8042 265.87183,311.49854 262.79956,301.13232 268.17603,296.90869 270.86401,293.45264 276.23901,282.69385 277.00854,280.01123 277.77417,273.48291 283.15063,270.41064 286.6062,264.64795 286.6062,264.64795 " style="fill:#e6d7e9" id="polygon52" />
		<polygon points="288.91284,264.64795 296.59204,265.8042 306.57495,257.74072 310.79956,250.05615 316.55884,248.90381 315.40698,241.22217 321.55298,238.92432 326.15894,230.48096 329.99878,216.65283 326.15894,210.5083 322.70337,198.98389 319.63159,195.14893 324.24097,187.46729 325.3894,173.64502 327.698,179.40479 326.54321,194.37549 340.36938,192.07666 345.74243,186.31494 352.27222,191.69092 352.27222,196.68311 366.09644,200.52002 368.01636,198.22119 371.08862,201.29248 379.53394,200.13916 381.84058,192.45557 387.60034,192.84033 390.67261,199.36572 389.13354,201.67627 404.11206,202.05615 399.88696,205.12744 403.72681,210.50439 402.19019,216.65283 398.73462,220.10889 395.66235,233.92822 398.35181,233.54834 399.11938,238.54053 396.81519,242.37549 400.65503,245.06689 395.27759,250.82861 401.42456,257.35693 393.74243,272.71631 393.74243,273.09912 387.98315,293.83447 390.67261,296.14111 394.1272,297.67627 398.35181,301.12939 398.73462,302.6665 388.36938,309.58057 390.28735,309.95947 388.36938,315.72021 382.22534,323.78369 391.82495,336.84424 396.43237,347.98096 392.70776,350.88916 386.26196,352.36182 382.58276,358.98193 375.77563,359.90674 372.64478,362.29932 365.28735,363.58252 362.52417,361.01123 354.42798,362.11475 349.01782,369.66016 342.76782,367.16016 340.26782,372.66016 338.64282,372.66016 336.64282,379.41016 335.76782,378.28516 333.51782,378.28516 331.39282,380.78516 327.89282,381.91016 323.51782,385.28516 323.39282,387.78516 317.64282,389.78516 314.26782,389.78516 308.88159,388.68311 307.72681,384.07666 301.96899,380.23486 297.35962,376.78076 299.66284,370.24756 298.1272,368.32764 295.05542,366.41064 280.46118,365.25537 278.55884,362.95459 279.31323,361.8042 276.24097,356.42725 275.08862,355.27686 275.08862,354.5083 269.71362,352.96631 267.02563,347.59229 268.9436,339.53564 264.71704,334.54541 265.87183,327.24463 265.87183,326.85596 260.49683,320.71143 264.33423,315.72021 265.10376,315.34033 266.25659,313.8042 265.87183,311.49854 262.79956,301.13232 268.17603,296.90869 270.86401,293.45264 276.23901,282.69385 277.00854,280.01123 277.77417,273.48291 283.15063,270.41064 286.6062,264.64795 286.6062,264.64795 " style="fill:none;stroke:#000000;stroke-width:0.42519999;stroke-miterlimit:3.8636899" id="polygon54" />
	</g>
	<g id="lsa-bk">
		<polygon points="91.15259,207.43506 89.2312,208.20459 85.77563,217.03467 85.77563,221.25635 96.14282,233.92822 100.7522,239.69287 116.88159,252.74854 118.41479,253.51514 116.88159,260.42725 110.35181,263.8833 97.68042,265.42041 98.83081,268.10693 101.90259,267.7251 105.74243,273.09912 110.35181,280.39209 104.59058,284.62061 104.59204,285.771 108.43237,292.29541 111.50464,291.52979 114.57495,296.5249 115.34399,303.05225 121.48462,308.03955 119.18384,310.72803 112.27222,312.64795 105.35962,318.7915 106.51245,326.4751 116.11401,329.1626 114.57495,337.61084 108.81519,344.5249 108.81519,344.90186 96.9104,354.11963 89.2312,354.89307 89.2312,357.57568 95.76001,361.02979 96.14282,366.7915 94.60962,372.17139 100.36938,374.47705 106.51245,376.77783 109.20142,378.69873 117.26245,378.69873 118.03003,378.69873 118.79956,379.08252 118.79956,384.07666 124.17456,388.68311 125.71362,392.14111 138.76782,392.90381 138.38354,397.12744 139.15259,405.96436 144.14282,405.96436 144.52759,411.7251 140.68823,415.56494 143.76001,424.01123 149.51978,420.55518 161.80737,430.92139 167.18384,427.08447 182.55103,429.00635 188.30298,417.48291 191.76001,414.41064 186.76782,414.41064 182.92798,406.34814 190.99097,398.28271 192.14282,399.8208 195.98315,398.6665 197.51782,391.75537 205.96362,389.06689 206.35181,395.21436 209.04175,397.51514 213.64722,398.28174 223.63159,405.58057 225.16821,405.19189 242.83081,402.5083 242.83081,396.74854 241.68042,384.07666 248.97534,381.3833 246.67261,371.78369 240.91284,364.87646 222.86206,365.25537 222.09644,362.18408 225.93384,348.35986 232.84644,326.09229 239.75854,323.021 250.51196,316.10889 248.97534,308.42822 248.20923,305.35693 256.27417,305.35693 260.11206,313.03467 260.49438,316.10693 264.33081,315.7251 265.10376,315.34033 266.25659,313.8042 265.87183,311.49854 262.79956,301.13232 268.17603,296.90869 270.86401,293.45264 276.23901,282.69385 277.00854,280.01123 277.77417,273.48291 283.15063,270.41064 286.6062,264.64795 281.2312,261.19189 282.38354,258.11963 289.29517,259.65576 288.9104,264.64795 296.59204,265.8042 295.05542,260.42725 296.97339,256.20459 294.28784,256.97119 288.52759,250.44482 292.36743,246.98877 293.51978,239.3042 289.68042,236.23486 289.68042,232.01123 284.68823,236.23877 283.53394,238.54248 276.62573,239.30908 275.08862,239.30518 265.87183,237.00439 267.40698,233.54834 260.88159,218.5708 254.73462,217.03467 246.67261,217.03467 247.82495,214.72803 235.15259,219.34033 235.15259,219.72021 229.77563,237.3833 203.28198,246.98389 204.43237,239.3042 193.68042,232.77588 190.22534,233.92822 188.30103,230.85596 181.3894,232.39209 179.8562,233.54736 174.4812,233.54736 171.78979,227.40479 162.57495,231.24463 159.50464,229.31982 156.81519,228.94092 154.89478,229.31982 154.1272,229.31982 152.59058,229.7085 136.84644,230.47705 134.54321,230.47705 133.3894,230.09229 130.70337,228.17139 126.4812,224.71533 123.78979,223.94678 116.88159,212.04443 114.95923,208.20459 112.27222,203.21143 108.04761,206.67041 106.89282,205.51221 106.51245,205.12744 105.74243,205.51611 102.68384,207.43506 102.68384,207.43506 " style="fill:#e8f1d2" id="polygon58" />
		<polygon points="91.15259,207.43506 89.2312,208.20459 85.77563,217.03467 85.77563,221.25635 96.14282,233.92822 100.7522,239.69287 116.88159,252.74854 118.41479,253.51514 116.88159,260.42725 110.35181,263.8833 97.68042,265.42041 98.83081,268.10693 101.90259,267.7251 105.74243,273.09912 110.35181,280.39209 104.59058,284.62061 104.59204,285.771 108.43237,292.29541 111.50464,291.52979 114.57495,296.5249 115.34399,303.05225 121.48462,308.03955 119.18384,310.72803 112.27222,312.64795 105.35962,318.7915 106.51245,326.4751 116.11401,329.1626 114.57495,337.61084 108.81519,344.5249 108.81519,344.90186 96.9104,354.11963 89.2312,354.89307 89.2312,357.57568 95.76001,361.02979 96.14282,366.7915 94.60962,372.17139 100.36938,374.47705 106.51245,376.77783 109.20142,378.69873 117.26245,378.69873 118.03003,378.69873 118.79956,379.08252 118.79956,384.07666 124.17456,388.68311 125.71362,392.14111 138.76782,392.90381 138.38354,397.12744 139.15259,405.96436 144.14282,405.96436 144.52759,411.7251 140.68823,415.56494 143.76001,424.01123 149.51978,420.55518 161.80737,430.92139 167.18384,427.08447 182.55103,429.00635 188.30298,417.48291 191.76001,414.41064 186.76782,414.41064 182.92798,406.34814 190.99097,398.28271 192.14282,399.8208 195.98315,398.6665 197.51782,391.75537 205.96362,389.06689 206.35181,395.21436 209.04175,397.51514 213.64722,398.28174 223.63159,405.58057 225.16821,405.19189 242.83081,402.5083 242.83081,396.74854 241.68042,384.07666 248.97534,381.3833 246.67261,371.78369 240.91284,364.87646 222.86206,365.25537 222.09644,362.18408 225.93384,348.35986 232.84644,326.09229 239.75854,323.021 250.51196,316.10889 248.97534,308.42822 248.20923,305.35693 256.27417,305.35693 260.11206,313.03467 260.49438,316.10693 264.33081,315.7251 265.10376,315.34033 266.25659,313.8042 265.87183,311.49854 262.79956,301.13232 268.17603,296.90869 270.86401,293.45264 276.23901,282.69385 277.00854,280.01123 277.77417,273.48291 283.15063,270.41064 286.6062,264.64795 281.2312,261.19189 282.38354,258.11963 289.29517,259.65576 288.9104,264.64795 296.59204,265.8042 295.05542,260.42725 296.97339,256.20459 294.28784,256.97119 288.52759,250.44482 292.36743,246.98877 293.51978,239.3042 289.68042,236.23486 289.68042,232.01123 284.68823,236.23877 283.53394,238.54248 276.62573,239.30908 275.08862,239.30518 265.87183,237.00439 267.40698,233.54834 260.88159,218.5708 254.73462,217.03467 246.67261,217.03467 247.82495,214.72803 235.15259,219.34033 235.15259,219.72021 229.77563,237.3833 203.28198,246.98389 204.43237,239.3042 193.68042,232.77588 190.22534,233.92822 188.30103,230.85596 181.3894,232.39209 179.8562,233.54736 174.4812,233.54736 171.78979,227.40479 162.57495,231.24463 159.50464,229.31982 156.81519,228.94092 154.89478,229.31982 154.1272,229.31982 152.59058,229.7085 136.84644,230.47705 134.54321,230.47705 133.3894,230.09229 130.70337,228.17139 126.4812,224.71533 123.78979,223.94678 116.88159,212.04443 114.95923,208.20459 112.27222,203.21143 108.04761,206.67041 106.89282,205.51221 106.51245,205.12744 105.74243,205.51611 102.68384,207.43506 102.68384,207.43506 " style="fill:none;stroke:#000000;stroke-width:0.42519999;stroke-miterlimit:3.8636899" id="polygon60" />
	</g>
	<g id="lsa-sdl">
		<g id="g64">
			<polygon points="361.10376,190.15674 364.9436,177.48486 369.55298,172.49268 367.63159,164.04419 368.01636,160.58838 366.4812,153.29248 374.15894,155.98096 381.45776,151.75635 381.45581,138.31494 371.8562,118.729 373.00659,116.42822 372.62573,114.5083 376.45923,109.13428 373.00659,103.36572 374.53979,101.06494 376.46118,92.62061 382.22339,90.6958 382.99097,84.16748 377.99878,65.3501 370.31714,61.51221 363.78979,64.5835 355.34399,67.65576 352.27222,60.35986 353.80542,54.98389 350.73462,60.36475 342.67261,56.5249 336.14282,56.90869 326.54321,57.29248 321.16821,61.12939 316.17603,59.59521 311.95337,56.13916 308.49438,55.37158 307.72681,55.37158 300.81519,54.604 296.20581,49.6106 287.76001,49.22705 284.68823,46.15479 289.68042,33.8667 285.84058,31.56494 275.8562,30.41455 269.32642,21.58057 263.95337,20.03955 257.42456,24.26709 253.19995,22.729 252.43042,15.8208 250.1272,12.74854 241.68042,13.89893 239.76001,12.36475 242.83081,3.14893 240.14282,1.22705 232.46118,3.14893 223.63159,17.35498 213.64722,14.28271 210.57495,26.18408 209.42456,32.32959 212.49683,39.24438 215.5686,43.85205 223.24683,46.1499 225.55298,40.78076 229.3894,48.4624 242.44604,55.76025 237.45581,61.12939 242.06323,68.81396 236.30298,71.11475 235.15259,70.72803 228.62573,73.80518 222.09644,72.26709 220.9436,72.64795 220.17456,72.26807 217.87183,76.10889 204.81519,76.49268 207.11743,82.24756 207.88501,86.4751 219.02417,86.4751 221.71118,92.62061 216.33423,96.45557 214.03198,102.22119 222.86206,102.22119 227.08862,104.52197 225.93384,106.43994 217.87183,114.12451 217.10425,127.18018 213.26245,131.40479 210.95923,133.31982 207.50073,134.47705 208.27222,137.54834 211.34399,147.53369 204.04517,152.90869 196.36938,153.67529 196.36938,151.75537 194.83081,153.67627 190.6062,159.04736 195.98315,163.27686 201.35962,162.89307 205.96899,165.19189 207.11743,164.04419 211.72681,165.96436 219.40698,160.97119 228.62573,161.74072 234.37964,160.5874 233.99878,166.73096 232.46118,165.96436 233.61597,171.72314 233.22876,176.71631 232.84644,177.48291 232.84644,179.78369 230.54321,193.61084 230.54321,194.76416 235.53394,196.30029 234.76782,205.13428 235.53394,208.20752 238.6062,207.04736 235.15259,219.34033 247.82495,214.72803 246.67261,217.03467 254.73462,217.03467 260.88159,218.5708 267.40698,233.54834 265.87183,237.00439 275.08862,239.30518 276.62573,239.30908 283.53394,238.54248 284.68823,236.23877 289.68042,232.01123 289.68042,236.23486 293.51978,239.3042 292.36743,246.98877 288.52759,250.44482 294.28784,256.97119 296.97339,256.20459 295.05542,260.42725 296.59058,265.8042 306.57495,257.74072 310.79956,250.05615 316.55884,248.90381 315.40698,241.22217 321.55298,238.92432 326.15894,230.48096 329.99878,216.65283 326.15894,210.5083 322.70337,198.98389 319.63159,195.14893 324.24097,187.46729 325.3894,173.64502 327.698,179.40479 326.54321,194.37549 340.36938,192.07666 345.74243,186.31494 352.27222,191.69092 352.27222,196.68311 366.09644,200.52002 368.03198,198.22119 368.03198,198.22119 " style="fill:#fff1cf" id="polygon66" />
			<polygon points="361.10376,190.15674 364.9436,177.48486 369.55298,172.49268 367.63159,164.04419 368.01636,160.58838 366.4812,153.29248 374.15894,155.98096 381.45776,151.75635 381.45581,138.31494 371.8562,118.729 373.00659,116.42822 372.62573,114.5083 376.45923,109.13428 373.00659,103.36572 374.53979,101.06494 376.46118,92.62061 382.22339,90.6958 382.99097,84.16748 377.99878,65.3501 370.31714,61.51221 363.78979,64.5835 355.34399,67.65576 352.27222,60.35986 353.80542,54.98389 350.73462,60.36475 342.67261,56.5249 336.14282,56.90869 326.54321,57.29248 321.16821,61.12939 316.17603,59.59521 311.95337,56.13916 308.49438,55.37158 307.72681,55.37158 300.81519,54.604 296.20581,49.6106 287.76001,49.22705 284.68823,46.15479 289.68042,33.8667 285.84058,31.56494 275.8562,30.41455 269.32642,21.58057 263.95337,20.03955 257.42456,24.26709 253.19995,22.729 252.43042,15.8208 250.1272,12.74854 241.68042,13.89893 239.76001,12.36475 242.83081,3.14893 240.14282,1.22705 232.46118,3.14893 223.63159,17.35498 213.64722,14.28271 210.57495,26.18408 209.42456,32.32959 212.49683,39.24438 215.5686,43.85205 223.24683,46.1499 225.55298,40.78076 229.3894,48.4624 242.44604,55.76025 237.45581,61.12939 242.06323,68.81396 236.30298,71.11475 235.15259,70.72803 228.62573,73.80518 222.09644,72.26709 220.9436,72.64795 220.17456,72.26807 217.87183,76.10889 204.81519,76.49268 207.11743,82.24756 207.88501,86.4751 219.02417,86.4751 221.71118,92.62061 216.33423,96.45557 214.03198,102.22119 222.86206,102.22119 227.08862,104.52197 225.93384,106.43994 217.87183,114.12451 217.10425,127.18018 213.26245,131.40479 210.95923,133.31982 207.50073,134.47705 208.27222,137.54834 211.34399,147.53369 204.04517,152.90869 196.36938,153.67529 196.36938,151.75537 194.83081,153.67627 190.6062,159.04736 195.98315,163.27686 201.35962,162.89307 205.96899,165.19189 207.11743,164.04419 211.72681,165.96436 219.40698,160.97119 228.62573,161.74072 234.37964,160.5874 233.99878,166.73096 232.46118,165.96436 233.61597,171.72314 233.22876,176.71631 232.84644,177.48291 232.84644,179.78369 230.54321,193.61084 230.54321,194.76416 235.53394,196.30029 234.76782,205.13428 235.53394,208.20752 238.6062,207.04736 235.15259,219.34033 247.82495,214.72803 246.67261,217.03467 254.73462,217.03467 260.88159,218.5708 267.40698,233.54834 265.87183,237.00439 275.08862,239.30518 276.62573,239.30908 283.53394,238.54248 284.68823,236.23877 289.68042,232.01123 289.68042,236.23486 293.51978,239.3042 292.36743,246.98877 288.52759,250.44482 294.28784,256.97119 296.97339,256.20459 295.05542,260.42725 296.59058,265.8042 306.57495,257.74072 310.79956,250.05615 316.55884,248.90381 315.40698,241.22217 321.55298,238.92432 326.15894,230.48096 329.99878,216.65283 326.15894,210.5083 322.70337,198.98389 319.63159,195.14893 324.24097,187.46729 325.3894,173.64502 327.698,179.40479 326.54321,194.37549 340.36938,192.07666 345.74243,186.31494 352.27222,191.69092 352.27222,196.68311 366.09644,200.52002 368.03198,198.22119 368.03198,198.22119 " style="fill:none;stroke:#000000;stroke-width:0.42519999;stroke-miterlimit:3.8636899" id="polygon68" />
		</g>
		<g id="g70">
			<polygon points="289.29517,259.65576 282.38354,258.11963 281.2312,261.19189 286.6062,264.64795 288.9104,264.64795 288.9104,264.64795 " style="fill:#fff1cf" id="polygon72" />
			<polygon points="289.29517,259.65576 282.38354,258.11963 281.2312,261.19189 286.6062,264.64795 288.9104,264.64795 288.9104,264.64795 " style="fill:none;stroke:#000000;stroke-width:0.42519999;stroke-miterlimit:3.8636899" id="polygon74" />
		</g>
	</g>
	<g id="lsa-saw">
		<polygon points="204.81519,40.39697 199.05542,44.62549 197.51782,45.771 195.98315,47.69287 190.99097,53.06689 185.2312,54.604 169.87183,63.8208 164.11206,59.98096 158.35181,63.04736 152.97534,63.43213 150.67261,59.20557 147.60034,56.52002 133.77563,53.83643 123.40894,58.06201 119.573,56.5249 118.80542,51.15186 117.26245,51.52979 101.51782,52.68311 96.52759,54.22119 95.37573,63.04736 82.70386,74.18408 77.70923,73.80518 62.73682,74.95557 45.45557,79.18018 44.30127,92.23682 44.68408,96.07471 44.30322,101.83447 51.60034,112.97119 53.13721,126.79639 60.04541,125.26025 61.58252,130.63525 70.41455,144.07666 77.70923,156.74854 83.46899,165.58057 92.30298,159.04736 94.60962,159.81592 93.83862,167.49854 88.46362,175.56299 85.77417,180.94092 89.61206,190.53955 102.66821,207.43506 105.74243,205.51611 106.51245,205.12744 106.89282,205.51221 108.04761,206.67041 112.27222,203.21143 114.95923,208.20459 116.88159,212.04443 123.78979,223.94678 126.4812,224.71533 130.70337,228.17139 133.3894,230.09229 134.54321,230.47705 136.84644,230.47705 152.59058,229.7085 154.1272,229.31982 154.89478,229.31982 156.81519,228.94092 159.50464,229.31982 162.57495,231.24463 171.78979,227.40479 174.4812,233.54736 179.8562,233.54736 181.3894,232.39209 188.30103,230.85596 190.22534,233.92822 193.68042,232.77588 204.43237,239.3042 203.28198,246.98389 229.77563,237.3833 235.15259,219.72021 235.15259,219.34033 238.6062,207.04736 235.53394,208.20752 234.76782,205.13428 235.53394,196.30029 230.54321,194.76416 230.54321,193.61084 232.84644,179.78369 232.84644,177.48291 233.22876,176.71631 233.61597,171.72314 232.46118,165.96436 233.99878,166.73096 234.37964,160.5874 228.62573,161.74072 219.40698,160.97119 211.72681,165.96436 207.11743,164.04419 205.96899,165.19189 201.35962,162.89307 195.98315,163.27686 190.6062,159.04736 194.83081,153.67627 196.36938,151.75537 196.36938,153.67529 204.04517,152.90869 211.34399,147.53369 208.27222,137.54834 207.50073,134.47705 210.95923,133.31982 213.26245,131.40479 217.10425,127.18018 217.87183,114.12451 225.93384,106.43994 227.08862,104.52197 222.86206,102.22119 214.03198,102.22119 216.33423,96.45557 221.71118,92.62061 219.02417,86.4751 207.88501,86.4751 207.11743,82.24756 204.81519,76.49268 217.87183,76.10889 220.17456,72.26807 220.9436,72.64795 222.09644,72.26709 228.62573,73.80518 235.15259,70.72803 236.30298,71.11475 242.06323,68.81396 237.45581,61.12939 242.44604,55.76025 229.3894,48.4624 225.55298,40.78076 223.24683,46.1499 215.5686,43.85205 212.68433,39.24438 212.68433,39.24438 " style="fill:#d5e6f4" id="polygon78" />
		<polygon points="204.81519,40.39697 199.05542,44.62549 197.51782,45.771 195.98315,47.69287 190.99097,53.06689 185.2312,54.604 169.87183,63.8208 164.11206,59.98096 158.35181,63.04736 152.97534,63.43213 150.67261,59.20557 147.60034,56.52002 133.77563,53.83643 123.40894,58.06201 119.573,56.5249 118.80542,51.15186 117.26245,51.52979 101.51782,52.68311 96.52759,54.22119 95.37573,63.04736 82.70386,74.18408 77.70923,73.80518 62.73682,74.95557 45.45557,79.18018 44.30127,92.23682 44.68408,96.07471 44.30322,101.83447 51.60034,112.97119 53.13721,126.79639 60.04541,125.26025 61.58252,130.63525 70.41455,144.07666 77.70923,156.74854 83.46899,165.58057 92.30298,159.04736 94.60962,159.81592 93.83862,167.49854 88.46362,175.56299 85.77417,180.94092 89.61206,190.53955 102.66821,207.43506 105.74243,205.51611 106.51245,205.12744 106.89282,205.51221 108.04761,206.67041 112.27222,203.21143 114.95923,208.20459 116.88159,212.04443 123.78979,223.94678 126.4812,224.71533 130.70337,228.17139 133.3894,230.09229 134.54321,230.47705 136.84644,230.47705 152.59058,229.7085 154.1272,229.31982 154.89478,229.31982 156.81519,228.94092 159.50464,229.31982 162.57495,231.24463 171.78979,227.40479 174.4812,233.54736 179.8562,233.54736 181.3894,232.39209 188.30103,230.85596 190.22534,233.92822 193.68042,232.77588 204.43237,239.3042 203.28198,246.98389 229.77563,237.3833 235.15259,219.72021 235.15259,219.34033 238.6062,207.04736 235.53394,208.20752 234.76782,205.13428 235.53394,196.30029 230.54321,194.76416 230.54321,193.61084 232.84644,179.78369 232.84644,177.48291 233.22876,176.71631 233.61597,171.72314 232.46118,165.96436 233.99878,166.73096 234.37964,160.5874 228.62573,161.74072 219.40698,160.97119 211.72681,165.96436 207.11743,164.04419 205.96899,165.19189 201.35962,162.89307 195.98315,163.27686 190.6062,159.04736 194.83081,153.67627 196.36938,151.75537 196.36938,153.67529 204.04517,152.90869 211.34399,147.53369 208.27222,137.54834 207.50073,134.47705 210.95923,133.31982 213.26245,131.40479 217.10425,127.18018 217.87183,114.12451 225.93384,106.43994 227.08862,104.52197 222.86206,102.22119 214.03198,102.22119 216.33423,96.45557 221.71118,92.62061 219.02417,86.4751 207.88501,86.4751 207.11743,82.24756 204.81519,76.49268 217.87183,76.10889 220.17456,72.26807 220.9436,72.64795 222.09644,72.26709 228.62573,73.80518 235.15259,70.72803 236.30298,71.11475 242.06323,68.81396 237.45581,61.12939 242.44604,55.76025 229.3894,48.4624 225.55298,40.78076 223.24683,46.1499 215.5686,43.85205 212.68433,39.24438 212.68433,39.24438 " style="fill:none;stroke:#000000;stroke-width:0.42519999;stroke-miterlimit:3.8636899" id="polygon80" />
	</g>
	<g id="lsa-hal">
		<polygon points="311.18384,579.52783 305.42456,571.84814 310.03198,569.54736 310.79956,563.78174 314.6394,563.40479 319.24683,567.23975 321.16821,565.31982 325.77563,564.55322 327.31323,566.4751 330.00073,561.48096 336.52759,560.71631 342.67261,560.71533 344.97534,566.09229 347.28198,576.84424 355.34399,577.99658 358.03198,576.45557 359.95337,578.37549 359.18384,580.68311 356.49683,580.29541 351.88696,584.52002 352.65503,590.28271 347.28198,596.04443 344.97534,605.64502 343.05542,611.78369 333.84058,610.63525 329.61597,610.63525 328.84644,601.41748 323.47144,599.1167 319.63159,597.19678 322.70337,592.97314 319.63159,589.51611 313.48706,589.896 307.72681,582.98389 307.35181,579.52783 307.35181,579.52783 " style="fill:#ffdddd" id="polygon84" />
		<polygon points="311.18384,579.52783 305.42456,571.84814 310.03198,569.54736 310.79956,563.78174 314.6394,563.40479 319.24683,567.23975 321.16821,565.31982 325.77563,564.55322 327.31323,566.4751 330.00073,561.48096 336.52759,560.71631 342.67261,560.71533 344.97534,566.09229 347.28198,576.84424 355.34399,577.99658 358.03198,576.45557 359.95337,578.37549 359.18384,580.68311 356.49683,580.29541 351.88696,584.52002 352.65503,590.28271 347.28198,596.04443 344.97534,605.64502 343.05542,611.78369 333.84058,610.63525 329.61597,610.63525 328.84644,601.41748 323.47144,599.1167 319.63159,597.19678 322.70337,592.97314 319.63159,589.51611 313.48706,589.896 307.72681,582.98389 307.35181,579.52783 307.35181,579.52783 " style="fill:none;stroke:#000000;stroke-width:0.42519999;stroke-miterlimit:3.8636899" id="polygon86" />
	</g>
	<g id="lsa-de">
		<polygon points="402.95337,396.93115 403.7522,402.26221 403.7522,407.33057 407.7522,408.93115 410.95337,407.86182 412.28394,413.4624 412.55298,421.99658 414.68384,426.26221 415.21899,430.53076 408.55298,431.06201 408.28394,436.13135 409.88354,440.6626 406.95337,442.53076 409.35181,444.93115 414.68384,452.93115 413.88354,457.4624 411.21899,461.19678 415.25073,464.32568 414.47681,468.55518 416.78394,470.4751 417.55103,483.52979 414.86206,486.22021 407.95337,482.76416 404.86743,465.86865 401.42017,461.64111 391.44019,469.32178 389.51782,478.15479 382.6062,475.46729 370.31714,472.01123 364.17456,469.7085 363.40698,463.18018 363.78979,460.10889 368.39917,457.42041 366.86401,453.19482 368.7854,437.83447 366.09644,435.91455 361.87183,435.91455 363.42261,426.31494 367.24683,424.01416 377.22876,424.39307 370.69995,415.17627 374.17456,413.25537 378.38501,414.41064 381.61743,416.6665 383.7522,413.73291 386.68384,411.60107 385.61743,403.33252 389.88354,401.73291 395.21899,399.06689 399.23462,394.79639 399.23462,394.79639 " style="fill:#ffdddd;fill-rule:evenodd" id="polygon90" />
		<polygon points="402.95337,396.93115 403.7522,402.26221 403.7522,407.33057 407.7522,408.93115 410.95337,407.86182 412.28394,413.4624 412.55298,421.99658 414.68384,426.26221 415.21899,430.53076 408.55298,431.06201 408.28394,436.13135 409.88354,440.6626 406.95337,442.53076 409.35181,444.93115 414.68384,452.93115 413.88354,457.4624 411.21899,461.19678 415.25073,464.32568 414.47681,468.55518 416.78394,470.4751 417.55103,483.52979 414.86206,486.22021 407.95337,482.76416 404.86743,465.86865 401.42017,461.64111 391.44019,469.32178 389.51782,478.15479 382.6062,475.46729 370.31714,472.01123 364.17456,469.7085 363.40698,463.18018 363.78979,460.10889 368.39917,457.42041 366.86401,453.19482 368.7854,437.83447 366.09644,435.91455 361.87183,435.91455 363.42261,426.31494 367.24683,424.01416 377.22876,424.39307 370.69995,415.17627 374.17456,413.25537 378.38501,414.41064 381.61743,416.6665 383.7522,413.73291 386.68384,411.60107 385.61743,403.33252 389.88354,401.73291 395.21899,399.06689 399.23462,394.79639 399.23462,394.79639 " style="fill:none;stroke:#000000;stroke-width:0.42519999;stroke-miterlimit:3.8636899" id="polygon92" />
	</g>
	<g id="lsa-md">
		<polygon points="260.49683,320.71143 265.87183,326.85596 265.87183,327.24463 264.71704,334.54541 268.9436,339.53564 267.02563,347.59229 269.71362,352.96631 275.08862,354.5083 275.08862,355.27686 276.24097,356.42725 279.31323,361.8042 278.54761,362.95459 276.23901,363.33936 277.00659,366.41064 263.18384,371.78369 255.11938,377.9292 248.97534,381.3833 246.67261,371.78369 240.91284,364.87646 222.86206,365.25537 222.09644,362.18408 225.93384,348.35986 232.84644,326.09229 239.75854,323.021 250.51196,316.10889 248.97534,308.42822 248.20923,305.35693 256.27417,305.35693 260.11206,313.03467 260.49438,316.10693 264.33423,315.72021 264.33423,315.72021 " style="fill:#ffdddd" id="polygon96" />
		<polygon points="260.49683,320.71143 265.87183,326.85596 265.87183,327.24463 264.71704,334.54541 268.9436,339.53564 267.02563,347.59229 269.71362,352.96631 275.08862,354.5083 275.08862,355.27686 276.24097,356.42725 279.31323,361.8042 278.54761,362.95459 276.23901,363.33936 277.00659,366.41064 263.18384,371.78369 255.11938,377.9292 248.97534,381.3833 246.67261,371.78369 240.91284,364.87646 222.86206,365.25537 222.09644,362.18408 225.93384,348.35986 232.84644,326.09229 239.75854,323.021 250.51196,316.10889 248.97534,308.42822 248.20923,305.35693 256.27417,305.35693 260.11206,313.03467 260.49438,316.10693 264.33423,315.72021 264.33423,315.72021 " style="fill:none;stroke:#000000;stroke-width:0.42519999;stroke-miterlimit:3.8636899" id="polygon98" />
	</g>
</g>
<g id="Landesgrenzen">
	<polygon points="538.1272,504.26709 538.89478,510.02881 547.72681,514.25244 553.48706,512.71143 556.9436,516.55029 563.8562,511.56299 562.70142,506.95459 566.15894,505.03467 572.68774,506.18896 576.14282,516.55127 581.90259,512.32275 607.63159,494.6665 612.62573,483.14893 605.32642,475.84814 606.86206,471.24463 603.40698,469.7085 604.9436,455.50049 605.32642,451.65576 600.33423,445.12744 595.72681,433.61279 602.25659,432.07666 601.49438,427.46729 597.2644,423.62842 586.51196,427.46729 585.74634,429.771 576.91235,429.00439 576.9104,417.8667 560.39917,418.24756 560.78394,411.34033 555.78979,410.18506 556.55737,405.57764 546.95776,404.42432 546.57495,407.49561 542.73462,408.64893 531.98315,406.34717 529.67798,394.82666 524.68774,396.36475 513.93384,396.36475 512.01636,390.98877 508.17603,388.29932 502.80103,387.52783 495.50415,382.54053 485.13354,379.08252 483.21558,386.38037 479.76001,386.76416 475.91821,387.91455 476.30298,390.98877 473.61206,391.37061 459.02563,390.60498 457.87183,384.84424 449.42456,382.15381 445.58276,379.08154 432.14282,378.31689 420.62573,369.09912 416.01636,368.71631 411.40698,362.5708 406.79956,354.89307 396.43237,347.98096 391.82495,336.84424 382.22534,323.78369 388.36938,315.72021 390.28735,309.95947 388.36938,309.58057 398.73462,302.6665 398.35181,301.12939 394.1272,297.67627 390.67261,296.14111 387.98315,293.83447 393.74243,273.09912 393.74243,272.71631 401.42456,257.35693 395.27759,250.82861 400.65503,245.06689 396.81519,242.37549 399.11938,238.54053 398.35181,233.54834 395.66235,233.92822 398.73462,220.10889 402.19019,216.65283 403.72681,210.50439 399.88696,205.12744 404.11206,202.05615 389.13354,201.67627 390.67261,199.36572 387.60034,192.84033 381.84058,192.45557 379.53394,200.13916 371.08862,201.29248 368.01636,198.22119 361.10376,190.15674 364.9436,177.48486 369.55298,172.49268 367.63159,164.04419 368.01636,160.58838 366.4812,153.29248 374.15894,155.98096 381.45776,151.75635 381.45581,138.31494 371.8562,118.729 373.00659,116.42822 372.62573,114.5083 376.45923,109.13428 373.00659,103.36572 374.53979,101.06494 376.46118,92.62061 382.22339,90.6958 382.99097,84.16748 377.99878,65.3501 370.31714,61.51221 363.78979,64.5835 355.34399,67.65576 352.27222,60.35986 353.80542,54.98389 350.73462,60.36475 342.67261,56.5249 336.14282,56.90869 326.54321,57.29248 321.16821,61.12939 316.17603,59.59521 311.95337,56.13916 308.49438,55.37158 307.72681,55.37158 300.81519,54.604 296.20581,49.6106 287.76001,49.22705 284.68823,46.15479 289.68042,33.8667 285.84058,31.56494 275.8562,30.41455 269.32642,21.58057 263.95337,20.03955 257.42456,24.26709 253.19995,22.729 252.43042,15.8208 250.1272,12.74854 241.68042,13.89893 239.76001,12.36475 242.83081,3.14893 240.14282,1.22705 232.46118,3.14893 223.63159,17.35498 213.64722,14.28271 210.57495,26.18408 209.42456,32.32959 212.49683,39.24438 204.81519,40.39697 199.05542,44.62549 197.51782,45.771 195.98315,47.69287 190.99097,53.06689 185.2312,54.604 169.87183,63.8208 164.11206,59.98096 158.35181,63.04736 152.97534,63.43213 150.67261,59.20557 147.60034,56.52002 133.77563,53.83643 123.40894,58.06201 119.573,56.5249 118.80542,51.15186 117.26245,51.52979 101.51782,52.68311 96.52759,54.22119 95.37573,63.04736 82.70386,74.18408 77.70923,73.80518 62.73682,74.95557 45.45557,79.18018 44.30127,92.23682 44.68408,96.07471 44.30322,101.83447 51.60034,112.97119 53.13721,126.79639 60.04541,125.26025 61.58252,130.63525 70.41455,144.07666 77.70923,156.74854 83.46899,165.58057 92.30298,159.04736 94.60962,159.81592 93.83862,167.49854 88.46362,175.56299 85.77417,180.94092 89.61206,190.53955 102.66821,207.43506 91.15259,207.43506 89.2312,208.20459 85.77563,217.03467 85.77563,221.25635 96.14282,233.92822 100.7522,239.69287 116.88159,252.74854 118.41479,253.51514 116.88159,260.42725 110.35181,263.8833 97.68042,265.42041 98.83081,268.10693 101.90259,267.7251 105.74243,273.09912 110.35181,280.39209 104.59058,284.62061 104.59204,285.771 108.43237,292.29541 111.50464,291.52979 114.57495,296.5249 115.34399,303.05225 121.48462,308.03955 119.18384,310.72803 112.27222,312.64795 105.35962,318.7915 106.51245,326.4751 116.11401,329.1626 114.57495,337.61084 108.81519,344.5249 108.81519,344.90186 96.9104,354.11963 89.2312,354.89307 89.2312,357.57568 95.76001,361.02979 96.14282,366.7915 94.60962,372.17139 90.38354,371.78369 85.00854,371.78369 73.48682,372.17139 66.19214,375.24463 63.50073,376.01123 57.35596,376.39209 56.97534,376.39209 48.14111,376.39209 43.91455,376.01123 38.92822,375.62842 32.01221,376.01123 27.02197,377.54834 21.64697,378.69385 23.56714,384.46045 18.18994,389.83447 10.89307,391.75537 6.66846,390.60498 1.68018,393.29248 7.82275,401.73877 15.50439,407.11475 20.49658,408.65088 22.79932,410.5708 21.26416,412.10693 13.96729,417.48486 13.96729,424.01221 17.03955,425.16455 21.26221,427.84814 22.79541,435.14893 19.34033,440.14111 5.51807,453.57568 8.20557,456.64795 5.90088,459.34033 6.67236,476.23682 10.89697,482.38037 17.80908,485.45264 23.94971,500.03955 27.40894,503.49854 28.55713,507.72021 27.02588,512.71631 27.40894,516.1665 31.24658,523.84814 35.47119,528.84033 47.75635,528.07666 49.68018,525.3833 61.58252,528.84424 66.18994,532.30029 71.56885,531.52783 80.39917,539.59229 80.78003,539.21143 85.3894,537.29248 86.92798,537.29248 77.70776,551.1167 81.16821,560.71533 88.46118,564.17139 93.07104,567.62842 90.38354,568.01123 89.61597,573.771 92.30298,578.76416 91.14917,580.68311 94.22144,581.83447 99.21118,587.59619 97.29761,595.65576 99.60034,597.9585 98.44604,602.18408 98.06519,606.02393 101.13354,606.40576 101.13354,607.94873 107.28198,611.78369 120.71704,606.7915 130.31714,610.63135 134.54321,612.93896 144.14282,616.39209 147.21558,614.85596 153.35962,615.24463 158.35181,612.55518 164.11401,615.24463 163.72925,617.93604 165.26245,616.77588 170.25659,616.78076 181.3894,612.94385 187.53394,622.54053 189.84058,620.62061 198.28784,622.53857 197.90259,629.06689 198.28784,631.75537 200.20581,635.59521 200.20581,637.12939 207.11743,639.04736 204.81323,642.11963 217.87183,655.56006 214.79956,656.32764 212.88159,660.94092 212.49683,663.62842 200.97534,677.44775 198.28784,674.37549 193.29761,680.52002 194.83081,683.98096 204.43237,688.20752 208.65698,686.67139 211.72681,688.20459 213.64478,693.58252 217.48462,693.96436 217.86401,698.57275 218.2522,702.41064 221.71118,702.7915 219.02563,703.94775 218.6394,710.47314 213.64478,711.24072 216.71704,717.3833 216.33423,718.5415 217.10181,721.61182 221.71362,726.604 231.6936,726.604 236.30298,727.37158 237.07104,724.29932 243.98315,720.84229 248.97534,722.38135 253.58423,725.83643 252.8186,728.90869 258.19019,723.53174 260.11401,725.06689 261.64478,723.91455 264.71704,723.14893 270.86206,727.37354 272.01636,731.98291 273.16821,735.05518 273.16821,738.88721 280.46362,739.27002 281.99878,741.19189 285.45581,743.10986 285.45581,746.18408 287.37378,748.48877 288.52759,748.49268 290.83081,744.26807 300.81519,746.18408 308.49683,744.26611 314.64136,742.729 323.08862,748.87744 323.08862,752.71533 326.92798,753.09814 330.38354,751.18213 331.91821,752.33447 338.44604,756.93994 338.83081,757.3208 338.448,766.5415 345.74243,766.15674 348.81519,774.604 362.64136,771.91064 366.09644,770.76221 375.31323,774.98682 383.37573,776.90283 384.91235,772.30127 387.60034,770.38135 389.90259,773.83643 395.66235,784.58447 397.96704,783.04932 401.42456,775.37158 401.04175,770.76416 406.79956,764.23486 409.87378,758.854 412.17603,755.40479 412.55884,754.63525 411.40698,746.95557 402.95923,745.80518 402.95923,744.64697 405.26196,742.34619 404.49438,736.20361 410.25659,730.05322 410.25659,727.37158 408.71899,723.91455 402.95923,724.68213 395.66235,719.69189 399.50464,712.78174 389.13354,708.55518 389.90259,700.49268 392.59058,692.81299 383.37378,693.96436 384.52759,690.5083 389.13354,682.06104 388.36743,672.08154 387.60034,672.45557 386.06079,665.54736 382.6062,665.1626 381.45581,658.63623 380.68579,652.10889 378.38354,652.49268 377.61597,649.42041 375.31323,642.11963 382.22534,639.04736 386.44604,638.28271 386.06079,637.12744 386.06323,634.06104 385.29517,626.37549 381.45776,621.00439 380.30298,608.32764 384.52759,604.10889 382.6062,600.26709 377.99878,599.8833 374.15894,589.89893 375.31323,588.36475 386.83081,579.9165 387.60034,573.38818 384.14282,572.23193 384.9104,562.63525 392.59204,556.49268 394.51196,549.96436 405.26196,551.11475 407.95337,548.81104 417.93384,543.43506 417.16821,541.51611 424.07837,542.28174 429.45581,540.36475 437.13354,542.28271 442.1272,531.52783 450.57495,536.90381 460.17603,532.29932 460.9436,532.68311 471.698,528.45557 472.84644,524.62061 482.44604,523.84814 484.36743,524.61572 479.76001,529.9917 492.81519,521.54736 498.57495,510.02686 508.9436,511.94873 509.32642,511.94873 517.3894,515.021 525.07104,507.34033 526.6062,506.5708 530.44604,501.58057 534.2854,500.81396 538.1272,504.26709 " style="fill:none;stroke:#000000;stroke-width:2.26769996;stroke-miterlimit:3.8636899" id="polygon101" />
</g>
<text x="137.00888" y="111.71494" style="font-size:20px;font-style:normal;font-variant:normal;font-weight:normal;font-stretch:normal;text-align:center;line-height:125%;letter-spacing:0px;writing-mode:lr-tb;text-anchor:middle;fill:#000000;fill-opacity:1;stroke:none;font-family:Sans;-inkscape-font-specification:Sans" id="lsa-saw-name" xml:space="preserve" sodipodi:linespacing="125%"><tspan x="137.00888" y="111.71494" id="tspan2260" style="font-style:normal;font-variant:normal;font-weight:normal;font-stretch:normal;letter-spacing:0px;font-family:Sans;-inkscape-font-specification:Sans">Altmarkkreis</tspan><tspan x="137.00888" y="136.71494" id="tspan2262" style="font-style:normal;font-variant:normal;font-weight:normal;font-stretch:normal;letter-spacing:0px;font-family:Sans;-inkscape-font-specification:Sans">Salzwedel</tspan></text>
<text x="291.9343" y="133.84714" style="font-size:20px;font-style:normal;font-variant:normal;font-weight:normal;font-stretch:normal;text-align:center;line-height:125%;letter-spacing:0px;writing-mode:lr-tb;text-anchor:middle;fill:#000000;fill-opacity:1;stroke:none;font-family:Sans;-inkscape-font-specification:Sans" id="lsa-sdl-name" xml:space="preserve" sodipodi:linespacing="125%"><tspan x="291.9343" y="133.84714" id="tspan2266" style="font-style:normal;font-variant:normal;font-weight:normal;font-stretch:normal;letter-spacing:0px;font-family:Sans;-inkscape-font-specification:Sans">Stendal</tspan></text>
<text x="174.9498" y="327.22827" style="font-size:20px;font-style:normal;font-variant:normal;font-weight:normal;font-stretch:normal;text-align:center;line-height:125%;letter-spacing:0px;writing-mode:lr-tb;text-anchor:middle;fill:#000000;fill-opacity:1;stroke:none;font-family:Sans" id="lsa-bk-name" xml:space="preserve" sodipodi:linespacing="125%"><tspan x="174.9498" y="327.22827" id="tspan2270" style="letter-spacing:0px">Brde</tspan></text>
<text x="329.20389" y="309.41953" style="font-size:20px;font-style:normal;font-variant:normal;font-weight:normal;font-stretch:normal;text-align:center;line-height:125%;writing-mode:lr-tb;text-anchor:middle;fill:#000000;fill-opacity:1;stroke:none;font-family:Sans;-inkscape-font-specification:Sans" id="lsa-jl-name" xml:space="preserve" sodipodi:linespacing="125%"><tspan x="329.20389" y="309.41953" id="tspan2274" style="font-style:normal;font-variant:normal;font-weight:normal;font-stretch:normal;font-family:Sans;-inkscape-font-specification:Sans">Jerichower</tspan><tspan x="329.20389" y="334.41953" id="tspan2276" style="font-style:normal;font-variant:normal;font-weight:normal;font-stretch:normal;font-family:Sans;-inkscape-font-specification:Sans">Land</tspan></text>
<text x="92.960136" y="464.99194" style="font-size:20px;font-style:normal;font-variant:normal;font-weight:normal;font-stretch:normal;text-align:center;line-height:125%;letter-spacing:0px;writing-mode:lr-tb;text-anchor:middle;fill:#000000;fill-opacity:1;stroke:none;font-family:Sans;-inkscape-font-specification:Sans" id="lsa-hz-name" xml:space="preserve" sodipodi:linespacing="125%"><tspan x="92.960136" y="464.99194" id="tspan2280" style="font-style:normal;font-variant:normal;font-weight:normal;font-stretch:normal;letter-spacing:0px;font-family:Sans;-inkscape-font-specification:Sans">Harz</tspan></text>
<text x="248.37596" y="460.12933" style="font-size:20px;font-style:normal;font-variant:normal;font-weight:normal;font-stretch:normal;text-align:center;line-height:125%;letter-spacing:0px;writing-mode:lr-tb;text-anchor:middle;fill:#000000;fill-opacity:1;stroke:none;font-family:Sans;-inkscape-font-specification:Sans" id="lsa-slk-name" xml:space="preserve" sodipodi:linespacing="125%"><tspan x="248.37596" y="460.12933" id="tspan2284" style="font-style:normal;font-variant:normal;font-weight:normal;font-stretch:normal;letter-spacing:0px;font-family:Sans;-inkscape-font-specification:Sans">Salzland-</tspan><tspan x="248.37596" y="485.12933" id="tspan2286" style="font-style:normal;font-variant:normal;font-weight:normal;font-stretch:normal;letter-spacing:0px;font-family:Sans;-inkscape-font-specification:Sans">kreis</tspan></text>
<text x="504.50156" y="451.07541" style="font-size:20px;font-style:normal;font-variant:normal;font-weight:normal;font-stretch:normal;text-align:center;line-height:125%;letter-spacing:0px;writing-mode:lr-tb;text-anchor:middle;fill:#000000;fill-opacity:1;stroke:none;font-family:Sans;-inkscape-font-specification:Sans" id="lsa-wb-name" xml:space="preserve" sodipodi:linespacing="125%"><tspan x="504.50156" y="451.07541" id="tspan2290" style="font-style:normal;font-variant:normal;font-weight:normal;font-stretch:normal;letter-spacing:0px;font-family:Sans;-inkscape-font-specification:Sans">Wittenberg</tspan></text>
<text x="191.59679" y="573.84424" style="font-size:20px;font-style:normal;font-variant:normal;font-weight:normal;font-stretch:normal;text-align:center;line-height:125%;letter-spacing:0px;writing-mode:lr-tb;text-anchor:middle;fill:#000000;fill-opacity:1;stroke:none;font-family:Sans;-inkscape-font-specification:Sans" id="lsa-msh-name" xml:space="preserve" sodipodi:linespacing="125%"><tspan x="191.59679" y="573.84424" id="tspan2294" style="font-style:normal;font-variant:normal;font-weight:normal;font-stretch:normal;letter-spacing:0px;font-family:Sans;-inkscape-font-specification:Sans">Mansfeld-</tspan><tspan x="191.59679" y="598.84424" id="tspan2296" style="font-style:normal;font-variant:normal;font-weight:normal;font-stretch:normal;letter-spacing:0px;font-family:Sans;-inkscape-font-specification:Sans">Sdharz</tspan></text>
<text x="304.4491" y="629.61829" style="font-size:20px;font-style:normal;font-variant:normal;font-weight:normal;font-stretch:normal;text-align:center;line-height:125%;letter-spacing:0px;writing-mode:lr-tb;text-anchor:middle;fill:#000000;fill-opacity:1;stroke:none;font-family:Sans;-inkscape-font-specification:Sans" id="lsa-sk-name" xml:space="preserve" sodipodi:linespacing="125%"><tspan x="304.4491" y="629.61829" id="tspan2300" style="font-style:normal;font-variant:normal;font-weight:normal;font-stretch:normal;letter-spacing:0px;font-family:Sans;-inkscape-font-specification:Sans">Saalekreis</tspan></text>
<text x="304.12561" y="701.06879" style="font-size:20px;font-style:normal;font-variant:normal;font-weight:normal;font-stretch:normal;text-align:center;line-height:125%;letter-spacing:0px;writing-mode:lr-tb;text-anchor:middle;fill:#000000;fill-opacity:1;stroke:none;font-family:Sans;-inkscape-font-specification:Sans" id="lsa-blk-name" xml:space="preserve" sodipodi:linespacing="125%"><tspan x="304.12561" y="701.06879" id="tspan2304" style="font-style:normal;font-variant:normal;font-weight:normal;font-stretch:normal;letter-spacing:0px;font-family:Sans;-inkscape-font-specification:Sans">Burgenland-</tspan><tspan x="363.38483" y="726.68622" id="tspan2308" style="font-style:normal;font-variant:normal;font-weight:normal;font-stretch:normal;letter-spacing:0px;font-family:Sans;-inkscape-font-specification:Sans">kreis</tspan></text>
<text x="353.68396" y="494.90851" style="font-size:20px;font-style:normal;font-variant:normal;font-weight:normal;font-stretch:normal;text-align:center;line-height:125%;letter-spacing:0px;writing-mode:lr-tb;text-anchor:middle;fill:#000000;fill-opacity:1;stroke:none;font-family:Sans;-inkscape-font-specification:Sans" id="lsa-abi-name" xml:space="preserve" sodipodi:linespacing="125%"><tspan x="353.68396" y="494.90851" id="tspan2312" style="font-style:normal;font-variant:normal;font-weight:normal;font-stretch:normal;letter-spacing:0px;font-family:Sans;-inkscape-font-specification:Sans">Anhalt-</tspan><tspan x="369.19357" y="516.52594" id="tspan2316" style="font-style:normal;font-variant:normal;font-weight:normal;font-stretch:normal;letter-spacing:0px;font-family:Sans;-inkscape-font-specification:Sans">Bitterfeld</tspan></text>
<text x="610.10864" y="24.455679" style="font-size:25px;font-style:normal;font-variant:normal;font-weight:bold;font-stretch:normal;text-align:end;line-height:100%;letter-spacing:0px;writing-mode:lr-tb;text-anchor:end;fill:#000000;fill-opacity:1;stroke:none;font-family:Sans;-inkscape-font-specification:Sans Bold" id="meta-title" xml:space="preserve" sodipodi:linespacing="100%"><tspan x="610.10864" y="24.455679" id="tspan2332" style="font-style:normal;font-variant:normal;font-weight:bold;font-stretch:normal;line-height:100%;letter-spacing:0px;font-family:Sans;-inkscape-font-specification:Sans Bold">Landkreise und</tspan><tspan x="610.10864" y="49.455681" id="tspan2336" style="font-style:normal;font-variant:normal;font-weight:bold;font-stretch:normal;line-height:100%;letter-spacing:0px;font-family:Sans;-inkscape-font-specification:Sans Bold">kreisfreie Stdte in </tspan><tspan x="610.10864" y="74.455681" id="tspan2338" style="font-style:normal;font-variant:normal;font-weight:bold;font-stretch:normal;line-height:100%;letter-spacing:0px;font-family:Sans;-inkscape-font-specification:Sans Bold">Sachsen-Anhalt</tspan></text>
<text xml:space="preserve" style="font-size:18px;font-style:normal;font-variant:normal;font-weight:bold;font-stretch:normal;text-align:center;line-height:125%;letter-spacing:0px;word-spacing:0px;text-anchor:middle;fill:#ff0000;fill-opacity:1;stroke:none;font-family:Sans;-inkscape-font-specification:Sans Bold" x="157.88245" y="189.20311" id="lsa-saw-count" sodipodi:linespacing="125%"><tspan sodipodi:role="line" id="tspan3079" x="157.88245" y="189.20311">...</tspan></text>
<text xml:space="preserve" style="font-size:18px;font-style:normal;font-variant:normal;font-weight:bold;font-stretch:normal;text-align:center;line-height:125%;letter-spacing:0px;word-spacing:0px;text-anchor:middle;fill:#ff0000;fill-opacity:1;stroke:none;font-family:Sans;-inkscape-font-specification:Sans Bold" x="351.35745" y="405.6937" id="lsa-abi-count" sodipodi:linespacing="125%"><tspan sodipodi:role="line" id="tspan3083" x="351.35745" y="405.6937">...</tspan></text>
<text xml:space="preserve" style="font-size:18px;font-style:normal;font-variant:normal;font-weight:bold;font-stretch:normal;text-align:center;line-height:125%;letter-spacing:0px;word-spacing:0px;text-anchor:middle;fill:#ff0000;fill-opacity:1;stroke:none;font-family:Sans;-inkscape-font-specification:Sans Bold" x="176.21959" y="291.93839" id="lsa-bk-count" sodipodi:linespacing="125%"><tspan sodipodi:role="line" id="tspan3087" x="176.21959" y="291.93839">...</tspan></text>
<text xml:space="preserve" style="font-size:18px;font-style:normal;font-variant:normal;font-weight:bold;font-stretch:normal;text-align:center;line-height:125%;letter-spacing:0px;word-spacing:0px;text-anchor:middle;fill:#ff0000;fill-opacity:1;stroke:none;font-family:Sans;-inkscape-font-specification:Sans Bold" x="299.6572" y="724.8927" id="lsa-blk-count" sodipodi:linespacing="125%"><tspan sodipodi:role="line" id="tspan3091" x="299.6572" y="724.8927">...</tspan></text>
<text xml:space="preserve" style="font-size:16px;font-style:normal;font-variant:normal;font-weight:bold;font-stretch:normal;text-align:center;line-height:125%;letter-spacing:0px;word-spacing:0px;text-anchor:middle;fill:#ff0000;fill-opacity:1;stroke:none;font-family:Sans;-inkscape-font-specification:Sans Bold" x="391.56781" y="453.04791" id="lsa-de-count" sodipodi:linespacing="125%"><tspan sodipodi:role="line" id="tspan3095" x="391.56781" y="453.04791">...</tspan></text>
<path style="fill:none;stroke:#000000;stroke-width:3;stroke-linecap:butt;stroke-linejoin:miter;stroke-miterlimit:4;stroke-opacity:1;stroke-dasharray:none" d="m 390.5934,421.8006 81.5414,-95.63498" id="path3097" inkscape:connector-curvature="0" transform="translate(0,-2.1717685e-6)" sodipodi:nodetypes="cc" />
<text xml:space="preserve" style="font-size:28px;font-style:normal;font-variant:normal;font-weight:normal;font-stretch:normal;line-height:125%;letter-spacing:0px;word-spacing:0px;fill:#000000;fill-opacity:1;stroke:none;font-family:Sans;-inkscape-font-specification:Sans" x="453.00781" y="318.11215" id="lsa-de-name" sodipodi:linespacing="125%"><tspan sodipodi:role="line" id="tspan3869" x="453.00781" y="318.11215" style="font-size:20px;font-style:normal;font-variant:normal;font-weight:normal;font-stretch:normal;letter-spacing:0px;font-family:Sans;-inkscape-font-specification:Sans">Dessau-Rolau</tspan></text>
<text xml:space="preserve" style="font-size:16px;font-style:normal;font-variant:normal;font-weight:bold;font-stretch:normal;text-align:center;line-height:125%;letter-spacing:0px;word-spacing:0px;text-anchor:middle;fill:#ff0000;fill-opacity:1;stroke:none;font-family:Sans;-inkscape-font-specification:Sans Bold" x="327.70605" y="587.89008" id="lsa-hal-count" sodipodi:linespacing="125%"><tspan sodipodi:role="line" id="tspan3873" x="327.70605" y="587.89008">...</tspan></text>
<path style="fill:none;stroke:#000000;stroke-width:3;stroke-linecap:butt;stroke-linejoin:miter;stroke-opacity:1;stroke-miterlimit:4;stroke-dasharray:none" d="m 334.21909,595.95694 94.6283,0" id="path3875" inkscape:connector-curvature="0" transform="translate(0,-2.1717685e-6)" />
<text sodipodi:linespacing="125%" id="lsa-hal-name" y="601.99707" x="439.92093" style="font-size:28px;font-style:normal;font-variant:normal;font-weight:normal;font-stretch:normal;line-height:125%;letter-spacing:0px;word-spacing:0px;fill:#000000;fill-opacity:1;stroke:none;font-family:Sans;-inkscape-font-specification:Sans" xml:space="preserve"><tspan style="font-size:20px;font-style:normal;font-variant:normal;font-weight:normal;font-stretch:normal;letter-spacing:0px;font-family:Sans;-inkscape-font-specification:Sans" y="601.99707" x="439.92093" id="tspan3879" sodipodi:role="line">Halle (Saale)</tspan></text>
<text xml:space="preserve" style="font-size:18px;font-style:normal;font-variant:normal;font-weight:bold;font-stretch:normal;text-align:center;line-height:125%;letter-spacing:0px;word-spacing:0px;text-anchor:middle;fill:#ff0000;fill-opacity:1;stroke:none;font-family:Sans;-inkscape-font-specification:Sans Bold" x="94.014313" y="495.28854" id="lsa-hz-count" sodipodi:linespacing="125%"><tspan sodipodi:role="line" id="tspan3883" x="94.014313" y="495.28854">...</tspan></text>
<text xml:space="preserve" style="font-size:18px;font-style:normal;font-variant:normal;font-weight:bold;font-stretch:normal;text-align:center;line-height:125%;letter-spacing:0px;word-spacing:0px;text-anchor:middle;fill:#ff0000;fill-opacity:1;stroke:none;font-family:Sans;-inkscape-font-specification:Sans Bold" x="347.35587" y="275.83142" id="lsa-jl-count" sodipodi:linespacing="125%"><tspan sodipodi:role="line" id="tspan3887" x="347.35587" y="275.83142">...</tspan></text>
<text xml:space="preserve" style="font-size:16px;font-style:normal;font-variant:normal;font-weight:bold;font-stretch:normal;text-align:center;line-height:125%;letter-spacing:0px;word-spacing:0px;text-anchor:middle;fill:#ff0000;fill-opacity:1;stroke:none;font-family:Sans;-inkscape-font-specification:Sans Bold" x="248.0271" y="348.29929" id="lsa-md-count" sodipodi:linespacing="125%"><tspan sodipodi:role="line" id="tspan3891" x="248.0271" y="348.29929">...</tspan></text>
<path style="fill:none;stroke:#000000;stroke-width:3;stroke-linecap:butt;stroke-linejoin:miter;stroke-opacity:1;stroke-miterlimit:4;stroke-dasharray:none" d="M 252.67769,358.37951 86.574825,334.21909" id="path3893" inkscape:connector-curvature="0" transform="translate(0,-2.1717685e-6)" />
<text sodipodi:linespacing="125%" id="lsa-md-name" y="323.14557" x="3.020057" style="font-size:18px;font-style:normal;font-variant:normal;font-weight:normal;font-stretch:normal;line-height:125%;letter-spacing:0px;word-spacing:0px;fill:#000000;fill-opacity:1;stroke:none;font-family:Sans;-inkscape-font-specification:Sans" xml:space="preserve"><tspan style="font-size:16px;font-style:normal;font-variant:normal;font-weight:normal;font-stretch:normal;letter-spacing:0px;font-family:Sans;-inkscape-font-specification:Sans" y="323.14557" x="3.020057" id="tspan3897" sodipodi:role="line">Magdeburg</tspan></text>
<text xml:space="preserve" style="font-size:18px;font-style:normal;font-variant:normal;font-weight:bold;font-stretch:normal;text-align:center;line-height:125%;letter-spacing:0px;word-spacing:0px;text-anchor:middle;fill:#ff0000;fill-opacity:1;stroke:none;font-family:Sans;-inkscape-font-specification:Sans Bold" x="217.49364" y="544.61609" id="lsa-msh-count" sodipodi:linespacing="125%"><tspan sodipodi:role="line" id="tspan3901" x="217.49364" y="544.61609">...</tspan></text>
<text xml:space="preserve" style="font-size:18px;font-style:normal;font-variant:normal;font-weight:bold;font-stretch:normal;text-align:center;line-height:125%;letter-spacing:0px;word-spacing:0px;text-anchor:middle;fill:#ff0000;fill-opacity:1;stroke:none;font-family:Sans;-inkscape-font-specification:Sans Bold" x="307.65732" y="651.39142" id="lsa-sk-count" sodipodi:linespacing="125%"><tspan sodipodi:role="line" id="tspan3905" x="307.65732" y="651.39142">...</tspan></text>
<text xml:space="preserve" style="font-size:18px;font-style:normal;font-variant:normal;font-weight:bold;font-stretch:normal;text-align:center;line-height:125%;letter-spacing:0px;word-spacing:0px;text-anchor:middle;fill:#ff0000;fill-opacity:1;stroke:none;font-family:Sans;-inkscape-font-specification:Sans Bold" x="272.888" y="431.8006" id="lsa-slk-count" sodipodi:linespacing="125%"><tspan sodipodi:role="line" id="tspan3909" x="272.888" y="431.8006">...</tspan></text>
<text xml:space="preserve" style="font-size:18px;font-style:normal;font-variant:normal;font-weight:bold;font-stretch:normal;line-height:125%;letter-spacing:0px;word-spacing:0px;fill:#ff0000;fill-opacity:1;stroke:none;font-family:Sans;-inkscape-font-specification:Sans Bold" x="294.31705" y="163.12291" id="lsa-sdl-count" sodipodi:linespacing="125%"><tspan sodipodi:role="line" id="tspan3913" x="294.31705" y="163.12291" style="font-size:18px;font-style:normal;font-variant:normal;font-weight:bold;font-stretch:normal;text-align:center;text-anchor:middle;font-family:Sans;-inkscape-font-specification:Sans Bold">...</tspan></text>
<text xml:space="preserve" style="font-size:18px;font-style:normal;font-variant:normal;font-weight:bold;font-stretch:normal;text-align:center;line-height:125%;letter-spacing:0px;word-spacing:0px;text-anchor:middle;fill:#ff0000;fill-opacity:1;stroke:none;font-family:Sans;-inkscape-font-specification:Sans Bold" x="506.69745" y="483.26181" id="lsa-wb-count" sodipodi:linespacing="125%"><tspan sodipodi:role="line" id="tspan3917" x="506.69745" y="483.26181">...</tspan></text>
<text xml:space="preserve" style="font-size:16px;font-style:normal;font-variant:normal;font-weight:bold;font-stretch:normal;line-height:125%;letter-spacing:0px;word-spacing:0px;fill:#000000;fill-opacity:1;stroke:none;font-family:Sans;-inkscape-font-specification:Sans Bold" x="444.95432" y="175.96918" id="meta-ext" sodipodi:linespacing="125%"><tspan sodipodi:role="line" id="tspan3921" x="444.95432" y="175.96918" style="font-size:16px;font-style:normal;font-variant:normal;font-weight:bold;font-stretch:normal;letter-spacing:0px;font-family:Sans;-inkscape-font-specification:Sans Bold">auerhalb: 1 (0)</tspan></text>
<text xml:space="preserve" style="font-size:20px;font-style:normal;font-variant:normal;font-weight:normal;font-stretch:normal;line-height:125%;letter-spacing:0px;word-spacing:0px;fill:#000000;fill-opacity:1;stroke:none;font-family:Sans;-inkscape-font-specification:Sans" x="427.8407" y="110.73523" id="meta-date" sodipodi:linespacing="125%"><tspan sodipodi:role="line" id="tspan3106" x="427.8407" y="110.73523" style="font-size:20px;font-style:normal;font-variant:normal;font-weight:normal;font-stretch:normal;letter-spacing:0px;font-family:Sans;-inkscape-font-specification:Sans">Stand: 12.04.2012</tspan></text>
<text xml:space="preserve" style="font-size:12px;font-style:normal;font-variant:normal;font-weight:normal;font-stretch:normal;text-align:end;line-height:125%;letter-spacing:0px;word-spacing:0px;text-anchor:end;fill:#000000;fill-opacity:1;stroke:none;font-family:Collegiate;-inkscape-font-specification:Collegiate" x="613.03601" y="125.83551" id="meta-date-compare" sodipodi:linespacing="125%"><tspan sodipodi:role="line" id="tspan3108" x="613.03601" y="125.83551" style="font-size:12px;font-style:normal;font-variant:normal;font-weight:normal;font-stretch:normal;text-align:end;text-anchor:end;font-family:Sans;-inkscape-font-specification:Sans">Vergleich zu 04.03.2012</tspan></text>
<g id="legend">
	<defs id="legend-gradient-def">
		<linearGradient id="legend-gradient" x1="1371.7143" y1="71.035203" x2="1371.7143" y2="169.01479" gradientTransform="matrix(0.81649658,0,0,1.1695569,-1112.8206,548.43457)" gradientUnits="userSpaceOnUse">
			<stop offset="0%" style="stop-color:green;stop-opacity:1" id="stop132" />
			<stop offset="63%" style="stop-color:yellow;stop-opacity:1" id="stop134" />
			<stop offset="100%" style="stop-color:red;stop-opacity:1" id="stop136" />
		</linearGradient>
	</defs>
	<rect x="7.1793709" y="631.51428" width="80" height="114.5927" id="rect138" style="fill:url(#legend-gradient)" />
	<text xml:space="preserve" style="font-size:16px;font-style:normal;font-variant:normal;font-weight:bold;font-stretch:normal;line-height:125%;letter-spacing:0px;word-spacing:0px;fill:#000000;fill-opacity:1;stroke:none;font-family:Sans;-inkscape-font-specification:Sans Bold" x="89.433441" y="643.01428" id="meta-legend-max" sodipodi:linespacing="125%"><tspan sodipodi:role="line" id="tspan3921-0" x="89.433441" y="643.01428" style="font-size:16px;font-style:normal;font-variant:normal;font-weight:bold;font-stretch:normal;letter-spacing:0px;font-family:Sans;-inkscape-font-specification:Sans Bold">42</tspan></text>
	<text xml:space="preserve" style="font-size:16px;font-style:normal;font-variant:normal;font-weight:bold;font-stretch:normal;line-height:125%;letter-spacing:0px;word-spacing:0px;fill:#000000;fill-opacity:1;stroke:none;font-family:Sans;-inkscape-font-specification:Sans Bold" x="89.331879" y="745.91168" id="meta-legend-min" sodipodi:linespacing="125%"><tspan sodipodi:role="line" id="tspan3921-0-4" x="89.331879" y="745.91168" style="font-size:16px;font-style:normal;font-variant:normal;font-weight:bold;font-stretch:normal;letter-spacing:0px;font-family:Sans;-inkscape-font-specification:Sans Bold">23</tspan></text>
	<text xml:space="preserve" style="font-size:16px;font-style:normal;font-variant:normal;font-weight:bold;font-stretch:normal;line-height:125%;letter-spacing:0px;word-spacing:0px;fill:#000000;fill-opacity:1;stroke:none;font-family:Sans;-inkscape-font-specification:Sans Bold" x="6.7809334" y="766.99902" id="meta-legend-title" sodipodi:linespacing="125%"><tspan sodipodi:role="line" id="tspan3921-0-4-8" x="6.7809334" y="766.99902" style="font-size:16px;font-style:normal;font-variant:normal;font-weight:bold;font-stretch:normal;letter-spacing:0px;font-family:Sans;-inkscape-font-specification:Sans Bold">Zahlen</tspan></text>
</g>

</svg>